<?xml version="1.0" encoding="utf-8" standalone="no"?>
<!DOCTYPE svg PUBLIC "-//W3C//DTD SVG 1.1//EN"
  "http://www.w3.org/Graphics/SVG/1.1/DTD/svg11.dtd">
<svg xmlns:xlink="http://www.w3.org/1999/xlink" width="928.433125pt" height="380.94025pt" viewBox="0 0 928.433125 380.94025" xmlns="http://www.w3.org/2000/svg" version="1.1">
 <metadata>
  <rdf:RDF xmlns:dc="http://purl.org/dc/elements/1.1/" xmlns:cc="http://creativecommons.org/ns#" xmlns:rdf="http://www.w3.org/1999/02/22-rdf-syntax-ns#">
   <cc:Work>
    <dc:type rdf:resource="http://purl.org/dc/dcmitype/StillImage"/>
    <dc:date>2026-04-21T12:33:01.914107</dc:date>
    <dc:format>image/svg+xml</dc:format>
    <dc:creator>
     <cc:Agent>
      <dc:title>Matplotlib v3.9.4, https://matplotlib.org/</dc:title>
     </cc:Agent>
    </dc:creator>
   </cc:Work>
  </rdf:RDF>
 </metadata>
 <defs>
  <style type="text/css">*{stroke-linejoin: round; stroke-linecap: butt}</style>
 </defs>
 <g id="figure_1">
  <g id="patch_1">
   <path d="M -0 380.94025
L 928.433125 380.94025
L 928.433125 -0
L -0 -0
z
" style="fill: #ffffff"/>
  </g>
  <g id="axes_1">
   <g id="patch_2">
    <path d="M 40.603125 343.384
L 496.228363 343.384
L 496.228363 68.144
L 40.603125 68.144
z
" style="fill: #ffffff"/>
   </g>
   <g id="PolyCollection_1">
    <defs>
     <path id="m6a1459b15b" d="M 303.166822 -148.535157
L 303.166822 -106.36625
L 310.889283 -106.36625
L 318.611745 -106.36625
L 326.334207 -106.36625
L 334.056668 -106.36625
L 341.77913 -106.36625
L 349.501592 -106.36625
L 357.224053 -106.36625
L 364.946515 -106.36625
L 372.668976 -106.36625
L 380.391438 -106.36625
L 380.391438 -137.035461
L 380.391438 -137.035461
L 372.668976 -144.877495
L 364.946515 -144.221157
L 357.224053 -146.237477
L 349.501592 -149.453847
L 341.77913 -138.300959
L 334.056668 -153.385448
L 326.334207 -148.567132
L 318.611745 -154.670107
L 310.889283 -151.309974
L 303.166822 -148.535157
z
" style="stroke: #ff8f00; stroke-opacity: 0.18"/>
    </defs>
    <g clip-path="url(#pb4540fc3b2)">
     <use xlink:href="#m6a1459b15b" x="0" y="380.94025" style="fill: #ff8f00; fill-opacity: 0.18; stroke: #ff8f00; stroke-opacity: 0.18"/>
    </g>
   </g>
   <g id="matplotlib.axis_1">
    <g id="xtick_1">
     <g id="line2d_1">
      <defs>
       <path id="md52bee3f73" d="M 0 0
L 0 3.5
" style="stroke: #000000; stroke-width: 0.8"/>
      </defs>
      <g>
       <use xlink:href="#md52bee3f73" x="40.603125" y="343.384" style="stroke: #000000; stroke-width: 0.8"/>
      </g>
     </g>
     <g id="text_1">
      <!-- 0 -->
      <g transform="translate(37.421875 357.982438) scale(0.1 -0.1)">
       <defs>
        <path id="DejaVuSans-30" d="M 2034 4250
Q 1547 4250 1301 3770
Q 1056 3291 1056 2328
Q 1056 1369 1301 889
Q 1547 409 2034 409
Q 2525 409 2770 889
Q 3016 1369 3016 2328
Q 3016 3291 2770 3770
Q 2525 4250 2034 4250
z
M 2034 4750
Q 2819 4750 3233 4129
Q 3647 3509 3647 2328
Q 3647 1150 3233 529
Q 2819 -91 2034 -91
Q 1250 -91 836 529
Q 422 1150 422 2328
Q 422 3509 836 4129
Q 1250 4750 2034 4750
z
" transform="scale(0.015625)"/>
       </defs>
       <use xlink:href="#DejaVuSans-30"/>
      </g>
     </g>
    </g>
    <g id="xtick_2">
     <g id="line2d_2">
      <g>
       <use xlink:href="#md52bee3f73" x="117.827742" y="343.384" style="stroke: #000000; stroke-width: 0.8"/>
      </g>
     </g>
     <g id="text_2">
      <!-- 10 -->
      <g transform="translate(111.465242 357.982438) scale(0.1 -0.1)">
       <defs>
        <path id="DejaVuSans-31" d="M 794 531
L 1825 531
L 1825 4091
L 703 3866
L 703 4441
L 1819 4666
L 2450 4666
L 2450 531
L 3481 531
L 3481 0
L 794 0
L 794 531
z
" transform="scale(0.015625)"/>
       </defs>
       <use xlink:href="#DejaVuSans-31"/>
       <use xlink:href="#DejaVuSans-30" x="63.623047"/>
      </g>
     </g>
    </g>
    <g id="xtick_3">
     <g id="line2d_3">
      <g>
       <use xlink:href="#md52bee3f73" x="195.052358" y="343.384" style="stroke: #000000; stroke-width: 0.8"/>
      </g>
     </g>
     <g id="text_3">
      <!-- 20 -->
      <g transform="translate(188.689858 357.982438) scale(0.1 -0.1)">
       <defs>
        <path id="DejaVuSans-32" d="M 1228 531
L 3431 531
L 3431 0
L 469 0
L 469 531
Q 828 903 1448 1529
Q 2069 2156 2228 2338
Q 2531 2678 2651 2914
Q 2772 3150 2772 3378
Q 2772 3750 2511 3984
Q 2250 4219 1831 4219
Q 1534 4219 1204 4116
Q 875 4013 500 3803
L 500 4441
Q 881 4594 1212 4672
Q 1544 4750 1819 4750
Q 2544 4750 2975 4387
Q 3406 4025 3406 3419
Q 3406 3131 3298 2873
Q 3191 2616 2906 2266
Q 2828 2175 2409 1742
Q 1991 1309 1228 531
z
" transform="scale(0.015625)"/>
       </defs>
       <use xlink:href="#DejaVuSans-32"/>
       <use xlink:href="#DejaVuSans-30" x="63.623047"/>
      </g>
     </g>
    </g>
    <g id="xtick_4">
     <g id="line2d_4">
      <g>
       <use xlink:href="#md52bee3f73" x="272.276975" y="343.384" style="stroke: #000000; stroke-width: 0.8"/>
      </g>
     </g>
     <g id="text_4">
      <!-- 30 -->
      <g transform="translate(265.914475 357.982438) scale(0.1 -0.1)">
       <defs>
        <path id="DejaVuSans-33" d="M 2597 2516
Q 3050 2419 3304 2112
Q 3559 1806 3559 1356
Q 3559 666 3084 287
Q 2609 -91 1734 -91
Q 1441 -91 1130 -33
Q 819 25 488 141
L 488 750
Q 750 597 1062 519
Q 1375 441 1716 441
Q 2309 441 2620 675
Q 2931 909 2931 1356
Q 2931 1769 2642 2001
Q 2353 2234 1838 2234
L 1294 2234
L 1294 2753
L 1863 2753
Q 2328 2753 2575 2939
Q 2822 3125 2822 3475
Q 2822 3834 2567 4026
Q 2313 4219 1838 4219
Q 1578 4219 1281 4162
Q 984 4106 628 3988
L 628 4550
Q 988 4650 1302 4700
Q 1616 4750 1894 4750
Q 2613 4750 3031 4423
Q 3450 4097 3450 3541
Q 3450 3153 3228 2886
Q 3006 2619 2597 2516
z
" transform="scale(0.015625)"/>
       </defs>
       <use xlink:href="#DejaVuSans-33"/>
       <use xlink:href="#DejaVuSans-30" x="63.623047"/>
      </g>
     </g>
    </g>
    <g id="xtick_5">
     <g id="line2d_5">
      <g>
       <use xlink:href="#md52bee3f73" x="349.501592" y="343.384" style="stroke: #000000; stroke-width: 0.8"/>
      </g>
     </g>
     <g id="text_5">
      <!-- 40 -->
      <g transform="translate(343.139092 357.982438) scale(0.1 -0.1)">
       <defs>
        <path id="DejaVuSans-34" d="M 2419 4116
L 825 1625
L 2419 1625
L 2419 4116
z
M 2253 4666
L 3047 4666
L 3047 1625
L 3713 1625
L 3713 1100
L 3047 1100
L 3047 0
L 2419 0
L 2419 1100
L 313 1100
L 313 1709
L 2253 4666
z
" transform="scale(0.015625)"/>
       </defs>
       <use xlink:href="#DejaVuSans-34"/>
       <use xlink:href="#DejaVuSans-30" x="63.623047"/>
      </g>
     </g>
    </g>
    <g id="xtick_6">
     <g id="line2d_6">
      <g>
       <use xlink:href="#md52bee3f73" x="426.726208" y="343.384" style="stroke: #000000; stroke-width: 0.8"/>
      </g>
     </g>
     <g id="text_6">
      <!-- 50 -->
      <g transform="translate(420.363708 357.982438) scale(0.1 -0.1)">
       <defs>
        <path id="DejaVuSans-35" d="M 691 4666
L 3169 4666
L 3169 4134
L 1269 4134
L 1269 2991
Q 1406 3038 1543 3061
Q 1681 3084 1819 3084
Q 2600 3084 3056 2656
Q 3513 2228 3513 1497
Q 3513 744 3044 326
Q 2575 -91 1722 -91
Q 1428 -91 1123 -41
Q 819 9 494 109
L 494 744
Q 775 591 1075 516
Q 1375 441 1709 441
Q 2250 441 2565 725
Q 2881 1009 2881 1497
Q 2881 1984 2565 2268
Q 2250 2553 1709 2553
Q 1456 2553 1204 2497
Q 953 2441 691 2322
L 691 4666
z
" transform="scale(0.015625)"/>
       </defs>
       <use xlink:href="#DejaVuSans-35"/>
       <use xlink:href="#DejaVuSans-30" x="63.623047"/>
      </g>
     </g>
    </g>
    <g id="text_7">
     <!-- Time step -->
     <g transform="translate(243.777463 371.660563) scale(0.1 -0.1)">
      <defs>
       <path id="DejaVuSans-54" d="M -19 4666
L 3928 4666
L 3928 4134
L 2272 4134
L 2272 0
L 1638 0
L 1638 4134
L -19 4134
L -19 4666
z
" transform="scale(0.015625)"/>
       <path id="DejaVuSans-69" d="M 603 3500
L 1178 3500
L 1178 0
L 603 0
L 603 3500
z
M 603 4863
L 1178 4863
L 1178 4134
L 603 4134
L 603 4863
z
" transform="scale(0.015625)"/>
       <path id="DejaVuSans-6d" d="M 3328 2828
Q 3544 3216 3844 3400
Q 4144 3584 4550 3584
Q 5097 3584 5394 3201
Q 5691 2819 5691 2113
L 5691 0
L 5113 0
L 5113 2094
Q 5113 2597 4934 2840
Q 4756 3084 4391 3084
Q 3944 3084 3684 2787
Q 3425 2491 3425 1978
L 3425 0
L 2847 0
L 2847 2094
Q 2847 2600 2669 2842
Q 2491 3084 2119 3084
Q 1678 3084 1418 2786
Q 1159 2488 1159 1978
L 1159 0
L 581 0
L 581 3500
L 1159 3500
L 1159 2956
Q 1356 3278 1631 3431
Q 1906 3584 2284 3584
Q 2666 3584 2933 3390
Q 3200 3197 3328 2828
z
" transform="scale(0.015625)"/>
       <path id="DejaVuSans-65" d="M 3597 1894
L 3597 1613
L 953 1613
Q 991 1019 1311 708
Q 1631 397 2203 397
Q 2534 397 2845 478
Q 3156 559 3463 722
L 3463 178
Q 3153 47 2828 -22
Q 2503 -91 2169 -91
Q 1331 -91 842 396
Q 353 884 353 1716
Q 353 2575 817 3079
Q 1281 3584 2069 3584
Q 2775 3584 3186 3129
Q 3597 2675 3597 1894
z
M 3022 2063
Q 3016 2534 2758 2815
Q 2500 3097 2075 3097
Q 1594 3097 1305 2825
Q 1016 2553 972 2059
L 3022 2063
z
" transform="scale(0.015625)"/>
       <path id="DejaVuSans-20" transform="scale(0.015625)"/>
       <path id="DejaVuSans-73" d="M 2834 3397
L 2834 2853
Q 2591 2978 2328 3040
Q 2066 3103 1784 3103
Q 1356 3103 1142 2972
Q 928 2841 928 2578
Q 928 2378 1081 2264
Q 1234 2150 1697 2047
L 1894 2003
Q 2506 1872 2764 1633
Q 3022 1394 3022 966
Q 3022 478 2636 193
Q 2250 -91 1575 -91
Q 1294 -91 989 -36
Q 684 19 347 128
L 347 722
Q 666 556 975 473
Q 1284 391 1588 391
Q 1994 391 2212 530
Q 2431 669 2431 922
Q 2431 1156 2273 1281
Q 2116 1406 1581 1522
L 1381 1569
Q 847 1681 609 1914
Q 372 2147 372 2553
Q 372 3047 722 3315
Q 1072 3584 1716 3584
Q 2034 3584 2315 3537
Q 2597 3491 2834 3397
z
" transform="scale(0.015625)"/>
       <path id="DejaVuSans-74" d="M 1172 4494
L 1172 3500
L 2356 3500
L 2356 3053
L 1172 3053
L 1172 1153
Q 1172 725 1289 603
Q 1406 481 1766 481
L 2356 481
L 2356 0
L 1766 0
Q 1100 0 847 248
Q 594 497 594 1153
L 594 3053
L 172 3053
L 172 3500
L 594 3500
L 594 4494
L 1172 4494
z
" transform="scale(0.015625)"/>
       <path id="DejaVuSans-70" d="M 1159 525
L 1159 -1331
L 581 -1331
L 581 3500
L 1159 3500
L 1159 2969
Q 1341 3281 1617 3432
Q 1894 3584 2278 3584
Q 2916 3584 3314 3078
Q 3713 2572 3713 1747
Q 3713 922 3314 415
Q 2916 -91 2278 -91
Q 1894 -91 1617 61
Q 1341 213 1159 525
z
M 3116 1747
Q 3116 2381 2855 2742
Q 2594 3103 2138 3103
Q 1681 3103 1420 2742
Q 1159 2381 1159 1747
Q 1159 1113 1420 752
Q 1681 391 2138 391
Q 2594 391 2855 752
Q 3116 1113 3116 1747
z
" transform="scale(0.015625)"/>
      </defs>
      <use xlink:href="#DejaVuSans-54"/>
      <use xlink:href="#DejaVuSans-69" x="57.958984"/>
      <use xlink:href="#DejaVuSans-6d" x="85.742188"/>
      <use xlink:href="#DejaVuSans-65" x="183.154297"/>
      <use xlink:href="#DejaVuSans-20" x="244.677734"/>
      <use xlink:href="#DejaVuSans-73" x="276.464844"/>
      <use xlink:href="#DejaVuSans-74" x="328.564453"/>
      <use xlink:href="#DejaVuSans-65" x="367.773438"/>
      <use xlink:href="#DejaVuSans-70" x="429.296875"/>
     </g>
    </g>
   </g>
   <g id="matplotlib.axis_2">
    <g id="ytick_1">
     <g id="line2d_7">
      <defs>
       <path id="me0905efe26" d="M 0 0
L -3.5 0
" style="stroke: #000000; stroke-width: 0.8"/>
      </defs>
      <g>
       <use xlink:href="#me0905efe26" x="40.603125" y="343.384" style="stroke: #000000; stroke-width: 0.8"/>
      </g>
     </g>
     <g id="text_8">
      <!-- 0 -->
      <g transform="translate(27.240625 347.183219) scale(0.1 -0.1)">
       <use xlink:href="#DejaVuSans-30"/>
      </g>
     </g>
    </g>
    <g id="ytick_2">
     <g id="line2d_8">
      <g>
       <use xlink:href="#me0905efe26" x="40.603125" y="308.979" style="stroke: #000000; stroke-width: 0.8"/>
      </g>
     </g>
     <g id="text_9">
      <!-- 10 -->
      <g transform="translate(20.878125 312.778219) scale(0.1 -0.1)">
       <use xlink:href="#DejaVuSans-31"/>
       <use xlink:href="#DejaVuSans-30" x="63.623047"/>
      </g>
     </g>
    </g>
    <g id="ytick_3">
     <g id="line2d_9">
      <g>
       <use xlink:href="#me0905efe26" x="40.603125" y="274.574" style="stroke: #000000; stroke-width: 0.8"/>
      </g>
     </g>
     <g id="text_10">
      <!-- 20 -->
      <g transform="translate(20.878125 278.373219) scale(0.1 -0.1)">
       <use xlink:href="#DejaVuSans-32"/>
       <use xlink:href="#DejaVuSans-30" x="63.623047"/>
      </g>
     </g>
    </g>
    <g id="ytick_4">
     <g id="line2d_10">
      <g>
       <use xlink:href="#me0905efe26" x="40.603125" y="240.169" style="stroke: #000000; stroke-width: 0.8"/>
      </g>
     </g>
     <g id="text_11">
      <!-- 30 -->
      <g transform="translate(20.878125 243.968219) scale(0.1 -0.1)">
       <use xlink:href="#DejaVuSans-33"/>
       <use xlink:href="#DejaVuSans-30" x="63.623047"/>
      </g>
     </g>
    </g>
    <g id="ytick_5">
     <g id="line2d_11">
      <g>
       <use xlink:href="#me0905efe26" x="40.603125" y="205.764" style="stroke: #000000; stroke-width: 0.8"/>
      </g>
     </g>
     <g id="text_12">
      <!-- 40 -->
      <g transform="translate(20.878125 209.563219) scale(0.1 -0.1)">
       <use xlink:href="#DejaVuSans-34"/>
       <use xlink:href="#DejaVuSans-30" x="63.623047"/>
      </g>
     </g>
    </g>
    <g id="ytick_6">
     <g id="line2d_12">
      <g>
       <use xlink:href="#me0905efe26" x="40.603125" y="171.359" style="stroke: #000000; stroke-width: 0.8"/>
      </g>
     </g>
     <g id="text_13">
      <!-- 50 -->
      <g transform="translate(20.878125 175.158219) scale(0.1 -0.1)">
       <use xlink:href="#DejaVuSans-35"/>
       <use xlink:href="#DejaVuSans-30" x="63.623047"/>
      </g>
     </g>
    </g>
    <g id="ytick_7">
     <g id="line2d_13">
      <g>
       <use xlink:href="#me0905efe26" x="40.603125" y="136.954" style="stroke: #000000; stroke-width: 0.8"/>
      </g>
     </g>
     <g id="text_14">
      <!-- 60 -->
      <g transform="translate(20.878125 140.753219) scale(0.1 -0.1)">
       <defs>
        <path id="DejaVuSans-36" d="M 2113 2584
Q 1688 2584 1439 2293
Q 1191 2003 1191 1497
Q 1191 994 1439 701
Q 1688 409 2113 409
Q 2538 409 2786 701
Q 3034 994 3034 1497
Q 3034 2003 2786 2293
Q 2538 2584 2113 2584
z
M 3366 4563
L 3366 3988
Q 3128 4100 2886 4159
Q 2644 4219 2406 4219
Q 1781 4219 1451 3797
Q 1122 3375 1075 2522
Q 1259 2794 1537 2939
Q 1816 3084 2150 3084
Q 2853 3084 3261 2657
Q 3669 2231 3669 1497
Q 3669 778 3244 343
Q 2819 -91 2113 -91
Q 1303 -91 875 529
Q 447 1150 447 2328
Q 447 3434 972 4092
Q 1497 4750 2381 4750
Q 2619 4750 2861 4703
Q 3103 4656 3366 4563
z
" transform="scale(0.015625)"/>
       </defs>
       <use xlink:href="#DejaVuSans-36"/>
       <use xlink:href="#DejaVuSans-30" x="63.623047"/>
      </g>
     </g>
    </g>
    <g id="ytick_8">
     <g id="line2d_14">
      <g>
       <use xlink:href="#me0905efe26" x="40.603125" y="102.549" style="stroke: #000000; stroke-width: 0.8"/>
      </g>
     </g>
     <g id="text_15">
      <!-- 70 -->
      <g transform="translate(20.878125 106.348219) scale(0.1 -0.1)">
       <defs>
        <path id="DejaVuSans-37" d="M 525 4666
L 3525 4666
L 3525 4397
L 1831 0
L 1172 0
L 2766 4134
L 525 4134
L 525 4666
z
" transform="scale(0.015625)"/>
       </defs>
       <use xlink:href="#DejaVuSans-37"/>
       <use xlink:href="#DejaVuSans-30" x="63.623047"/>
      </g>
     </g>
    </g>
    <g id="ytick_9">
     <g id="line2d_15">
      <g>
       <use xlink:href="#me0905efe26" x="40.603125" y="68.144" style="stroke: #000000; stroke-width: 0.8"/>
      </g>
     </g>
     <g id="text_16">
      <!-- 80 -->
      <g transform="translate(20.878125 71.943219) scale(0.1 -0.1)">
       <defs>
        <path id="DejaVuSans-38" d="M 2034 2216
Q 1584 2216 1326 1975
Q 1069 1734 1069 1313
Q 1069 891 1326 650
Q 1584 409 2034 409
Q 2484 409 2743 651
Q 3003 894 3003 1313
Q 3003 1734 2745 1975
Q 2488 2216 2034 2216
z
M 1403 2484
Q 997 2584 770 2862
Q 544 3141 544 3541
Q 544 4100 942 4425
Q 1341 4750 2034 4750
Q 2731 4750 3128 4425
Q 3525 4100 3525 3541
Q 3525 3141 3298 2862
Q 3072 2584 2669 2484
Q 3125 2378 3379 2068
Q 3634 1759 3634 1313
Q 3634 634 3220 271
Q 2806 -91 2034 -91
Q 1263 -91 848 271
Q 434 634 434 1313
Q 434 1759 690 2068
Q 947 2378 1403 2484
z
M 1172 3481
Q 1172 3119 1398 2916
Q 1625 2713 2034 2713
Q 2441 2713 2670 2916
Q 2900 3119 2900 3481
Q 2900 3844 2670 4047
Q 2441 4250 2034 4250
Q 1625 4250 1398 4047
Q 1172 3844 1172 3481
z
" transform="scale(0.015625)"/>
       </defs>
       <use xlink:href="#DejaVuSans-38"/>
       <use xlink:href="#DejaVuSans-30" x="63.623047"/>
      </g>
     </g>
    </g>
    <g id="text_17">
     <!-- State of Charge (%) -->
     <g transform="translate(14.798438 255.181188) rotate(-90) scale(0.1 -0.1)">
      <defs>
       <path id="DejaVuSans-53" d="M 3425 4513
L 3425 3897
Q 3066 4069 2747 4153
Q 2428 4238 2131 4238
Q 1616 4238 1336 4038
Q 1056 3838 1056 3469
Q 1056 3159 1242 3001
Q 1428 2844 1947 2747
L 2328 2669
Q 3034 2534 3370 2195
Q 3706 1856 3706 1288
Q 3706 609 3251 259
Q 2797 -91 1919 -91
Q 1588 -91 1214 -16
Q 841 59 441 206
L 441 856
Q 825 641 1194 531
Q 1563 422 1919 422
Q 2459 422 2753 634
Q 3047 847 3047 1241
Q 3047 1584 2836 1778
Q 2625 1972 2144 2069
L 1759 2144
Q 1053 2284 737 2584
Q 422 2884 422 3419
Q 422 4038 858 4394
Q 1294 4750 2059 4750
Q 2388 4750 2728 4690
Q 3069 4631 3425 4513
z
" transform="scale(0.015625)"/>
       <path id="DejaVuSans-61" d="M 2194 1759
Q 1497 1759 1228 1600
Q 959 1441 959 1056
Q 959 750 1161 570
Q 1363 391 1709 391
Q 2188 391 2477 730
Q 2766 1069 2766 1631
L 2766 1759
L 2194 1759
z
M 3341 1997
L 3341 0
L 2766 0
L 2766 531
Q 2569 213 2275 61
Q 1981 -91 1556 -91
Q 1019 -91 701 211
Q 384 513 384 1019
Q 384 1609 779 1909
Q 1175 2209 1959 2209
L 2766 2209
L 2766 2266
Q 2766 2663 2505 2880
Q 2244 3097 1772 3097
Q 1472 3097 1187 3025
Q 903 2953 641 2809
L 641 3341
Q 956 3463 1253 3523
Q 1550 3584 1831 3584
Q 2591 3584 2966 3190
Q 3341 2797 3341 1997
z
" transform="scale(0.015625)"/>
       <path id="DejaVuSans-6f" d="M 1959 3097
Q 1497 3097 1228 2736
Q 959 2375 959 1747
Q 959 1119 1226 758
Q 1494 397 1959 397
Q 2419 397 2687 759
Q 2956 1122 2956 1747
Q 2956 2369 2687 2733
Q 2419 3097 1959 3097
z
M 1959 3584
Q 2709 3584 3137 3096
Q 3566 2609 3566 1747
Q 3566 888 3137 398
Q 2709 -91 1959 -91
Q 1206 -91 779 398
Q 353 888 353 1747
Q 353 2609 779 3096
Q 1206 3584 1959 3584
z
" transform="scale(0.015625)"/>
       <path id="DejaVuSans-66" d="M 2375 4863
L 2375 4384
L 1825 4384
Q 1516 4384 1395 4259
Q 1275 4134 1275 3809
L 1275 3500
L 2222 3500
L 2222 3053
L 1275 3053
L 1275 0
L 697 0
L 697 3053
L 147 3053
L 147 3500
L 697 3500
L 697 3744
Q 697 4328 969 4595
Q 1241 4863 1831 4863
L 2375 4863
z
" transform="scale(0.015625)"/>
       <path id="DejaVuSans-43" d="M 4122 4306
L 4122 3641
Q 3803 3938 3442 4084
Q 3081 4231 2675 4231
Q 1875 4231 1450 3742
Q 1025 3253 1025 2328
Q 1025 1406 1450 917
Q 1875 428 2675 428
Q 3081 428 3442 575
Q 3803 722 4122 1019
L 4122 359
Q 3791 134 3420 21
Q 3050 -91 2638 -91
Q 1578 -91 968 557
Q 359 1206 359 2328
Q 359 3453 968 4101
Q 1578 4750 2638 4750
Q 3056 4750 3426 4639
Q 3797 4528 4122 4306
z
" transform="scale(0.015625)"/>
       <path id="DejaVuSans-68" d="M 3513 2113
L 3513 0
L 2938 0
L 2938 2094
Q 2938 2591 2744 2837
Q 2550 3084 2163 3084
Q 1697 3084 1428 2787
Q 1159 2491 1159 1978
L 1159 0
L 581 0
L 581 4863
L 1159 4863
L 1159 2956
Q 1366 3272 1645 3428
Q 1925 3584 2291 3584
Q 2894 3584 3203 3211
Q 3513 2838 3513 2113
z
" transform="scale(0.015625)"/>
       <path id="DejaVuSans-72" d="M 2631 2963
Q 2534 3019 2420 3045
Q 2306 3072 2169 3072
Q 1681 3072 1420 2755
Q 1159 2438 1159 1844
L 1159 0
L 581 0
L 581 3500
L 1159 3500
L 1159 2956
Q 1341 3275 1631 3429
Q 1922 3584 2338 3584
Q 2397 3584 2469 3576
Q 2541 3569 2628 3553
L 2631 2963
z
" transform="scale(0.015625)"/>
       <path id="DejaVuSans-67" d="M 2906 1791
Q 2906 2416 2648 2759
Q 2391 3103 1925 3103
Q 1463 3103 1205 2759
Q 947 2416 947 1791
Q 947 1169 1205 825
Q 1463 481 1925 481
Q 2391 481 2648 825
Q 2906 1169 2906 1791
z
M 3481 434
Q 3481 -459 3084 -895
Q 2688 -1331 1869 -1331
Q 1566 -1331 1297 -1286
Q 1028 -1241 775 -1147
L 775 -588
Q 1028 -725 1275 -790
Q 1522 -856 1778 -856
Q 2344 -856 2625 -561
Q 2906 -266 2906 331
L 2906 616
Q 2728 306 2450 153
Q 2172 0 1784 0
Q 1141 0 747 490
Q 353 981 353 1791
Q 353 2603 747 3093
Q 1141 3584 1784 3584
Q 2172 3584 2450 3431
Q 2728 3278 2906 2969
L 2906 3500
L 3481 3500
L 3481 434
z
" transform="scale(0.015625)"/>
       <path id="DejaVuSans-28" d="M 1984 4856
Q 1566 4138 1362 3434
Q 1159 2731 1159 2009
Q 1159 1288 1364 580
Q 1569 -128 1984 -844
L 1484 -844
Q 1016 -109 783 600
Q 550 1309 550 2009
Q 550 2706 781 3412
Q 1013 4119 1484 4856
L 1984 4856
z
" transform="scale(0.015625)"/>
       <path id="DejaVuSans-25" d="M 4653 2053
Q 4381 2053 4226 1822
Q 4072 1591 4072 1178
Q 4072 772 4226 539
Q 4381 306 4653 306
Q 4919 306 5073 539
Q 5228 772 5228 1178
Q 5228 1588 5073 1820
Q 4919 2053 4653 2053
z
M 4653 2450
Q 5147 2450 5437 2106
Q 5728 1763 5728 1178
Q 5728 594 5436 251
Q 5144 -91 4653 -91
Q 4153 -91 3862 251
Q 3572 594 3572 1178
Q 3572 1766 3864 2108
Q 4156 2450 4653 2450
z
M 1428 4353
Q 1159 4353 1004 4120
Q 850 3888 850 3481
Q 850 3069 1003 2837
Q 1156 2606 1428 2606
Q 1700 2606 1854 2837
Q 2009 3069 2009 3481
Q 2009 3884 1853 4118
Q 1697 4353 1428 4353
z
M 4250 4750
L 4750 4750
L 1831 -91
L 1331 -91
L 4250 4750
z
M 1428 4750
Q 1922 4750 2215 4408
Q 2509 4066 2509 3481
Q 2509 2891 2217 2550
Q 1925 2209 1428 2209
Q 931 2209 642 2551
Q 353 2894 353 3481
Q 353 4063 643 4406
Q 934 4750 1428 4750
z
" transform="scale(0.015625)"/>
       <path id="DejaVuSans-29" d="M 513 4856
L 1013 4856
Q 1481 4119 1714 3412
Q 1947 2706 1947 2009
Q 1947 1309 1714 600
Q 1481 -109 1013 -844
L 513 -844
Q 928 -128 1133 580
Q 1338 1288 1338 2009
Q 1338 2731 1133 3434
Q 928 4138 513 4856
z
" transform="scale(0.015625)"/>
      </defs>
      <use xlink:href="#DejaVuSans-53"/>
      <use xlink:href="#DejaVuSans-74" x="63.476562"/>
      <use xlink:href="#DejaVuSans-61" x="102.685547"/>
      <use xlink:href="#DejaVuSans-74" x="163.964844"/>
      <use xlink:href="#DejaVuSans-65" x="203.173828"/>
      <use xlink:href="#DejaVuSans-20" x="264.697266"/>
      <use xlink:href="#DejaVuSans-6f" x="296.484375"/>
      <use xlink:href="#DejaVuSans-66" x="357.666016"/>
      <use xlink:href="#DejaVuSans-20" x="392.871094"/>
      <use xlink:href="#DejaVuSans-43" x="424.658203"/>
      <use xlink:href="#DejaVuSans-68" x="494.482422"/>
      <use xlink:href="#DejaVuSans-61" x="557.861328"/>
      <use xlink:href="#DejaVuSans-72" x="619.140625"/>
      <use xlink:href="#DejaVuSans-67" x="658.503906"/>
      <use xlink:href="#DejaVuSans-65" x="721.980469"/>
      <use xlink:href="#DejaVuSans-20" x="783.503906"/>
      <use xlink:href="#DejaVuSans-28" x="815.291016"/>
      <use xlink:href="#DejaVuSans-25" x="854.304688"/>
      <use xlink:href="#DejaVuSans-29" x="949.324219"/>
     </g>
    </g>
   </g>
   <g id="line2d_16">
    <path d="M 40.603125 274.574
L 496.228363 274.574
" clip-path="url(#pb4540fc3b2)" style="fill: none; stroke-dasharray: 1.5,2.475; stroke-dashoffset: 0; stroke: #e65100; stroke-width: 1.5"/>
   </g>
   <g id="patch_3">
    <path d="M 40.603125 343.384
L 40.603125 68.144
" style="fill: none; stroke: #000000; stroke-width: 0.8; stroke-linejoin: miter; stroke-linecap: square"/>
   </g>
   <g id="patch_4">
    <path d="M 40.603125 343.384
L 496.228363 343.384
" style="fill: none; stroke: #000000; stroke-width: 0.8; stroke-linejoin: miter; stroke-linecap: square"/>
   </g>
   <g id="line2d_17">
    <path d="M 40.603125 154.028329
L 48.325587 156.816406
L 56.048048 159.401679
L 63.77051 161.76108
L 71.492972 164.5739
L 79.215433 167.386716
L 86.937895 169.73162
L 94.660357 172.285993
L 102.382818 175.159535
L 110.10528 177.771934
L 117.827742 180.643913
L 125.550203 183.516489
L 133.272665 186.206454
L 140.995127 189.452552
L 148.717588 192.650045
L 156.44005 195.547537
L 164.162512 198.561285
L 171.884973 201.232597
L 179.607435 204.219302
L 187.329897 207.336129
L 195.052358 209.710337
L 202.77482 212.520995
L 210.497282 215.255971
L 218.219743 218.376009
L 225.942205 221.26888
L 233.664667 225.641257
L 241.387128 225.319518
L 249.10959 229.175204
L 256.832052 230.172507
L 264.554513 223.949563
L 272.276975 222.767014
L 279.999437 228.369009
L 287.721898 225.356703
L 295.44436 228.253249
L 303.166822 232.405093
L 310.889283 229.630276
L 318.611745 226.270143
L 326.334207 232.373118
L 334.056668 227.554802
L 341.77913 242.639291
L 349.501592 231.486403
L 357.224053 234.702773
L 364.946515 236.719093
L 372.668976 236.062755
L 380.391438 243.904789
L 388.1139 291.7765
L 395.836361 291.7765
L 403.558823 291.7765
L 411.281285 288.725806
L 419.003746 291.7765
L 426.726208 291.7765
L 434.44867 291.7765
L 442.171131 291.7765
L 449.893593 291.7765
L 457.616055 291.7765
L 465.338516 291.7765
L 473.060978 291.7765
L 480.78344 291.7765
L 488.505901 291.7765
L 496.228363 291.7765
" clip-path="url(#pb4540fc3b2)" style="fill: none; stroke: #1565c0; stroke-width: 2; stroke-linecap: square"/>
   </g>
   <g id="line2d_18">
    <path d="M 40.603125 154.028329
L 48.325587 156.816406
L 56.048048 159.401679
L 63.77051 161.76108
L 71.492972 164.5739
L 79.215433 167.386716
L 86.937895 169.73162
L 94.660357 172.285993
L 102.382818 175.159535
L 110.10528 177.771934
L 117.827742 180.643913
L 125.550203 183.516489
L 133.272665 186.206454
L 140.995127 189.452552
L 148.717588 192.650045
L 156.44005 195.547537
L 164.162512 198.561285
L 171.884973 201.232597
L 179.607435 204.219302
L 187.329897 207.336129
L 195.052358 209.710337
L 202.77482 212.520995
L 210.497282 215.255971
L 218.219743 218.376009
L 225.942205 221.26888
L 233.664667 223.992658
L 241.387128 227.042058
L 249.10959 229.697513
L 256.832052 236.733501
L 264.554513 243.689769
L 272.276975 250.726032
L 279.999437 257.129074
L 287.721898 264.013557
L 295.44436 271.167486
L 303.166822 277.836239
L 310.889283 285.032262
L 318.611745 291.859368
L 326.334207 299.246036
L 334.056668 306.469758
L 341.77913 313.29996
L 349.501592 319.990408
L 357.224053 326.827189
L 364.946515 333.0625
L 372.668976 333.0625
L 380.391438 333.0625
L 388.1139 333.0625
L 395.836361 333.0625
L 403.558823 333.0625
L 411.281285 288.725806
L 419.003746 291.933136
L 426.726208 294.60191
L 434.44867 297.453676
L 442.171131 300.380747
L 449.893593 302.975312
L 457.616055 305.461675
L 465.338516 307.97377
L 473.060978 310.94272
L 480.78344 313.774908
L 488.505901 316.44183
L 496.228363 318.942502
" clip-path="url(#pb4540fc3b2)" style="fill: none; stroke-dasharray: 7.4,3.2; stroke-dashoffset: 0; stroke: #c62828; stroke-width: 2"/>
   </g>
   <g id="patch_5">
    <path d="M 372.202992 176.54705
Q 349.972701 199.044221 328.685416 220.587064
" style="fill: none; stroke: #2e7d32; stroke-width: 1.2; stroke-linecap: round"/>
    <path d="M 332.284423 219.363487
L 328.685416 220.587064
L 329.865958 216.973711
" style="fill: none; stroke: #2e7d32; stroke-width: 1.2; stroke-linecap: round"/>
   </g>
   <g id="text_18">
    <!-- Shield -->
    <g style="fill: #2e7d32" transform="translate(364.946515 161.840859) scale(0.085 -0.085)">
     <defs>
      <path id="DejaVuSans-6c" d="M 603 4863
L 1178 4863
L 1178 0
L 603 0
L 603 4863
z
" transform="scale(0.015625)"/>
      <path id="DejaVuSans-64" d="M 2906 2969
L 2906 4863
L 3481 4863
L 3481 0
L 2906 0
L 2906 525
Q 2725 213 2448 61
Q 2172 -91 1784 -91
Q 1150 -91 751 415
Q 353 922 353 1747
Q 353 2572 751 3078
Q 1150 3584 1784 3584
Q 2172 3584 2448 3432
Q 2725 3281 2906 2969
z
M 947 1747
Q 947 1113 1208 752
Q 1469 391 1925 391
Q 2381 391 2643 752
Q 2906 1113 2906 1747
Q 2906 2381 2643 2742
Q 2381 3103 1925 3103
Q 1469 3103 1208 2742
Q 947 2381 947 1747
z
" transform="scale(0.015625)"/>
     </defs>
     <use xlink:href="#DejaVuSans-53"/>
     <use xlink:href="#DejaVuSans-68" x="63.476562"/>
     <use xlink:href="#DejaVuSans-69" x="126.855469"/>
     <use xlink:href="#DejaVuSans-65" x="154.638672"/>
     <use xlink:href="#DejaVuSans-6c" x="216.162109"/>
     <use xlink:href="#DejaVuSans-64" x="243.945312"/>
    </g>
    <!-- activates -->
    <g style="fill: #2e7d32" transform="translate(364.946515 171.359) scale(0.085 -0.085)">
     <defs>
      <path id="DejaVuSans-63" d="M 3122 3366
L 3122 2828
Q 2878 2963 2633 3030
Q 2388 3097 2138 3097
Q 1578 3097 1268 2742
Q 959 2388 959 1747
Q 959 1106 1268 751
Q 1578 397 2138 397
Q 2388 397 2633 464
Q 2878 531 3122 666
L 3122 134
Q 2881 22 2623 -34
Q 2366 -91 2075 -91
Q 1284 -91 818 406
Q 353 903 353 1747
Q 353 2603 823 3093
Q 1294 3584 2113 3584
Q 2378 3584 2631 3529
Q 2884 3475 3122 3366
z
" transform="scale(0.015625)"/>
      <path id="DejaVuSans-76" d="M 191 3500
L 800 3500
L 1894 563
L 2988 3500
L 3597 3500
L 2284 0
L 1503 0
L 191 3500
z
" transform="scale(0.015625)"/>
     </defs>
     <use xlink:href="#DejaVuSans-61"/>
     <use xlink:href="#DejaVuSans-63" x="61.279297"/>
     <use xlink:href="#DejaVuSans-74" x="116.259766"/>
     <use xlink:href="#DejaVuSans-69" x="155.46875"/>
     <use xlink:href="#DejaVuSans-76" x="183.251953"/>
     <use xlink:href="#DejaVuSans-61" x="242.431641"/>
     <use xlink:href="#DejaVuSans-74" x="303.710938"/>
     <use xlink:href="#DejaVuSans-65" x="342.919922"/>
     <use xlink:href="#DejaVuSans-73" x="404.443359"/>
    </g>
   </g>
   <g id="text_19">
    <!-- OASG -->
    <g style="fill: #e65100" transform="translate(268.475687 255.29425) scale(0.08 -0.08)">
     <defs>
      <path id="DejaVuSans-Oblique-4f" d="M 2919 4238
Q 2400 4238 2003 3986
Q 1606 3734 1313 3219
Q 1125 2891 1026 2522
Q 928 2153 928 1778
Q 928 1128 1239 775
Q 1550 422 2119 422
Q 2631 422 3032 676
Q 3434 931 3719 1434
Q 3909 1772 4009 2142
Q 4109 2513 4109 2881
Q 4109 3528 3796 3883
Q 3484 4238 2919 4238
z
M 2100 -91
Q 1241 -91 748 418
Q 256 928 256 1813
Q 256 2319 448 2847
Q 641 3375 978 3788
Q 1375 4272 1862 4511
Q 2350 4750 2938 4750
Q 3794 4750 4287 4245
Q 4781 3741 4781 2869
Q 4781 2331 4593 1812
Q 4406 1294 4056 872
Q 3656 384 3173 146
Q 2691 -91 2100 -91
z
" transform="scale(0.015625)"/>
      <path id="DejaVuSans-Oblique-41" d="M 2356 4666
L 3072 4666
L 3938 0
L 3278 0
L 3084 1197
L 984 1197
L 325 0
L -341 0
L 2356 4666
z
M 2584 4044
L 1275 1722
L 2988 1722
L 2584 4044
z
" transform="scale(0.015625)"/>
      <path id="DejaVuSans-Oblique-53" d="M 3859 4513
L 3738 3897
Q 3422 4066 3111 4152
Q 2800 4238 2509 4238
Q 1944 4238 1609 3991
Q 1275 3744 1275 3334
Q 1275 3109 1398 2989
Q 1522 2869 2034 2731
L 2413 2638
Q 3053 2472 3303 2217
Q 3553 1963 3553 1503
Q 3553 797 2998 353
Q 2444 -91 1538 -91
Q 1166 -91 791 -17
Q 416 56 38 206
L 166 856
Q 513 641 861 531
Q 1209 422 1556 422
Q 2147 422 2503 684
Q 2859 947 2859 1369
Q 2859 1650 2717 1795
Q 2575 1941 2106 2059
L 1728 2156
Q 1081 2325 845 2545
Q 609 2766 609 3163
Q 609 3859 1145 4304
Q 1681 4750 2541 4750
Q 2875 4750 3203 4690
Q 3531 4631 3859 4513
z
" transform="scale(0.015625)"/>
      <path id="DejaVuSans-Oblique-47" d="M 3494 697
L 3738 1919
L 2700 1919
L 2797 2438
L 4453 2438
L 4050 384
Q 3634 156 3143 32
Q 2653 -91 2156 -91
Q 1278 -91 783 396
Q 288 884 288 1753
Q 288 2475 589 3126
Q 891 3778 1422 4213
Q 1756 4484 2153 4617
Q 2550 4750 3034 4750
Q 3472 4750 3873 4639
Q 4275 4528 4641 4306
L 4513 3634
Q 4231 3928 3853 4083
Q 3475 4238 3047 4238
Q 2550 4238 2172 4048
Q 1794 3859 1497 3463
Q 1244 3125 1098 2667
Q 953 2209 953 1734
Q 953 1081 1287 751
Q 1622 422 2284 422
Q 2616 422 2925 492
Q 3234 563 3494 697
z
" transform="scale(0.015625)"/>
     </defs>
     <use xlink:href="#DejaVuSans-Oblique-4f"/>
     <use xlink:href="#DejaVuSans-Oblique-41" x="78.710938"/>
     <use xlink:href="#DejaVuSans-Oblique-53" x="147.119141"/>
     <use xlink:href="#DejaVuSans-Oblique-47" x="210.595703"/>
    </g>
    <!-- zone -->
    <g style="fill: #e65100" transform="translate(270.456312 264.2525) scale(0.08 -0.08)">
     <defs>
      <path id="DejaVuSans-Oblique-7a" d="M 744 3500
L 3475 3500
L 3372 2975
L 738 459
L 2913 459
L 2822 0
L -19 0
L 84 525
L 2719 3041
L 653 3041
L 744 3500
z
" transform="scale(0.015625)"/>
      <path id="DejaVuSans-Oblique-6f" d="M 1625 -91
Q 1009 -91 651 289
Q 294 669 294 1325
Q 294 1706 417 2101
Q 541 2497 738 2766
Q 1047 3184 1428 3384
Q 1809 3584 2291 3584
Q 2888 3584 3255 3212
Q 3622 2841 3622 2241
Q 3622 1825 3500 1412
Q 3378 1000 3181 728
Q 2875 309 2494 109
Q 2113 -91 1625 -91
z
M 891 1344
Q 891 869 1089 633
Q 1288 397 1691 397
Q 2269 397 2648 901
Q 3028 1406 3028 2181
Q 3028 2634 2825 2865
Q 2622 3097 2228 3097
Q 1903 3097 1650 2945
Q 1397 2794 1197 2484
Q 1050 2253 970 1956
Q 891 1659 891 1344
z
" transform="scale(0.015625)"/>
      <path id="DejaVuSans-Oblique-6e" d="M 3566 2113
L 3156 0
L 2578 0
L 2988 2091
Q 3016 2238 3031 2350
Q 3047 2463 3047 2528
Q 3047 2791 2881 2937
Q 2716 3084 2419 3084
Q 1956 3084 1622 2776
Q 1288 2469 1184 1941
L 800 0
L 225 0
L 903 3500
L 1478 3500
L 1363 2950
Q 1603 3253 1940 3418
Q 2278 3584 2650 3584
Q 3113 3584 3367 3334
Q 3622 3084 3622 2631
Q 3622 2519 3608 2391
Q 3594 2263 3566 2113
z
" transform="scale(0.015625)"/>
      <path id="DejaVuSans-Oblique-65" d="M 3078 2063
Q 3088 2113 3092 2166
Q 3097 2219 3097 2272
Q 3097 2653 2873 2875
Q 2650 3097 2266 3097
Q 1838 3097 1509 2826
Q 1181 2556 1013 2059
L 3078 2063
z
M 3578 1613
L 903 1613
Q 884 1494 878 1425
Q 872 1356 872 1306
Q 872 872 1139 634
Q 1406 397 1894 397
Q 2269 397 2603 481
Q 2938 566 3225 728
L 3116 159
Q 2806 34 2476 -28
Q 2147 -91 1806 -91
Q 1078 -91 686 257
Q 294 606 294 1247
Q 294 1794 489 2264
Q 684 2734 1063 3103
Q 1306 3334 1642 3459
Q 1978 3584 2356 3584
Q 2950 3584 3301 3228
Q 3653 2872 3653 2272
Q 3653 2128 3634 1964
Q 3616 1800 3578 1613
z
" transform="scale(0.015625)"/>
     </defs>
     <use xlink:href="#DejaVuSans-Oblique-7a"/>
     <use xlink:href="#DejaVuSans-Oblique-6f" x="52.490234"/>
     <use xlink:href="#DejaVuSans-Oblique-6e" x="113.671875"/>
     <use xlink:href="#DejaVuSans-Oblique-65" x="177.050781"/>
    </g>
   </g>
   <g id="text_20">
    <!-- (A) OASG: Observed vs True SOC -->
    <g transform="translate(167.477853 62.144) scale(0.11 -0.11)">
     <defs>
      <path id="DejaVuSans-Bold-28" d="M 2413 -844
L 1484 -844
Q 1006 -72 778 623
Q 550 1319 550 2003
Q 550 2688 779 3389
Q 1009 4091 1484 4856
L 2413 4856
Q 2013 4116 1813 3408
Q 1613 2700 1613 2009
Q 1613 1319 1811 609
Q 2009 -100 2413 -844
z
" transform="scale(0.015625)"/>
      <path id="DejaVuSans-Bold-41" d="M 3419 850
L 1538 850
L 1241 0
L 31 0
L 1759 4666
L 3194 4666
L 4922 0
L 3713 0
L 3419 850
z
M 1838 1716
L 3116 1716
L 2478 3572
L 1838 1716
z
" transform="scale(0.015625)"/>
      <path id="DejaVuSans-Bold-29" d="M 513 -844
Q 913 -100 1113 609
Q 1313 1319 1313 2009
Q 1313 2700 1113 3408
Q 913 4116 513 4856
L 1441 4856
Q 1916 4091 2145 3389
Q 2375 2688 2375 2003
Q 2375 1319 2147 623
Q 1919 -72 1441 -844
L 513 -844
z
" transform="scale(0.015625)"/>
      <path id="DejaVuSans-Bold-20" transform="scale(0.015625)"/>
      <path id="DejaVuSans-Bold-4f" d="M 2719 3878
Q 2169 3878 1866 3472
Q 1563 3066 1563 2328
Q 1563 1594 1866 1187
Q 2169 781 2719 781
Q 3272 781 3575 1187
Q 3878 1594 3878 2328
Q 3878 3066 3575 3472
Q 3272 3878 2719 3878
z
M 2719 4750
Q 3844 4750 4481 4106
Q 5119 3463 5119 2328
Q 5119 1197 4481 553
Q 3844 -91 2719 -91
Q 1597 -91 958 553
Q 319 1197 319 2328
Q 319 3463 958 4106
Q 1597 4750 2719 4750
z
" transform="scale(0.015625)"/>
      <path id="DejaVuSans-Bold-53" d="M 3834 4519
L 3834 3531
Q 3450 3703 3084 3790
Q 2719 3878 2394 3878
Q 1963 3878 1756 3759
Q 1550 3641 1550 3391
Q 1550 3203 1689 3098
Q 1828 2994 2194 2919
L 2706 2816
Q 3484 2659 3812 2340
Q 4141 2022 4141 1434
Q 4141 663 3683 286
Q 3225 -91 2284 -91
Q 1841 -91 1394 -6
Q 947 78 500 244
L 500 1259
Q 947 1022 1364 901
Q 1781 781 2169 781
Q 2563 781 2772 912
Q 2981 1044 2981 1288
Q 2981 1506 2839 1625
Q 2697 1744 2272 1838
L 1806 1941
Q 1106 2091 782 2419
Q 459 2747 459 3303
Q 459 4000 909 4375
Q 1359 4750 2203 4750
Q 2588 4750 2994 4692
Q 3400 4634 3834 4519
z
" transform="scale(0.015625)"/>
      <path id="DejaVuSans-Bold-47" d="M 4781 347
Q 4331 128 3847 18
Q 3363 -91 2847 -91
Q 1681 -91 1000 561
Q 319 1213 319 2328
Q 319 3456 1012 4103
Q 1706 4750 2913 4750
Q 3378 4750 3804 4662
Q 4231 4575 4609 4403
L 4609 3438
Q 4219 3659 3833 3768
Q 3447 3878 3059 3878
Q 2341 3878 1952 3476
Q 1563 3075 1563 2328
Q 1563 1588 1938 1184
Q 2313 781 3003 781
Q 3191 781 3352 804
Q 3513 828 3641 878
L 3641 1784
L 2906 1784
L 2906 2591
L 4781 2591
L 4781 347
z
" transform="scale(0.015625)"/>
      <path id="DejaVuSans-Bold-3a" d="M 716 3500
L 1844 3500
L 1844 2291
L 716 2291
L 716 3500
z
M 716 1209
L 1844 1209
L 1844 0
L 716 0
L 716 1209
z
" transform="scale(0.015625)"/>
      <path id="DejaVuSans-Bold-62" d="M 2400 722
Q 2759 722 2948 984
Q 3138 1247 3138 1747
Q 3138 2247 2948 2509
Q 2759 2772 2400 2772
Q 2041 2772 1848 2508
Q 1656 2244 1656 1747
Q 1656 1250 1848 986
Q 2041 722 2400 722
z
M 1656 2988
Q 1888 3294 2169 3439
Q 2450 3584 2816 3584
Q 3463 3584 3878 3070
Q 4294 2556 4294 1747
Q 4294 938 3878 423
Q 3463 -91 2816 -91
Q 2450 -91 2169 54
Q 1888 200 1656 506
L 1656 0
L 538 0
L 538 4863
L 1656 4863
L 1656 2988
z
" transform="scale(0.015625)"/>
      <path id="DejaVuSans-Bold-73" d="M 3272 3391
L 3272 2541
Q 2913 2691 2578 2766
Q 2244 2841 1947 2841
Q 1628 2841 1473 2761
Q 1319 2681 1319 2516
Q 1319 2381 1436 2309
Q 1553 2238 1856 2203
L 2053 2175
Q 2913 2066 3209 1816
Q 3506 1566 3506 1031
Q 3506 472 3093 190
Q 2681 -91 1863 -91
Q 1516 -91 1145 -36
Q 775 19 384 128
L 384 978
Q 719 816 1070 734
Q 1422 653 1784 653
Q 2113 653 2278 743
Q 2444 834 2444 1013
Q 2444 1163 2330 1236
Q 2216 1309 1875 1350
L 1678 1375
Q 931 1469 631 1722
Q 331 1975 331 2491
Q 331 3047 712 3315
Q 1094 3584 1881 3584
Q 2191 3584 2531 3537
Q 2872 3491 3272 3391
z
" transform="scale(0.015625)"/>
      <path id="DejaVuSans-Bold-65" d="M 4031 1759
L 4031 1441
L 1416 1441
Q 1456 1047 1700 850
Q 1944 653 2381 653
Q 2734 653 3104 758
Q 3475 863 3866 1075
L 3866 213
Q 3469 63 3072 -14
Q 2675 -91 2278 -91
Q 1328 -91 801 392
Q 275 875 275 1747
Q 275 2603 792 3093
Q 1309 3584 2216 3584
Q 3041 3584 3536 3087
Q 4031 2591 4031 1759
z
M 2881 2131
Q 2881 2450 2695 2645
Q 2509 2841 2209 2841
Q 1884 2841 1681 2658
Q 1478 2475 1428 2131
L 2881 2131
z
" transform="scale(0.015625)"/>
      <path id="DejaVuSans-Bold-72" d="M 3138 2547
Q 2991 2616 2845 2648
Q 2700 2681 2553 2681
Q 2122 2681 1889 2404
Q 1656 2128 1656 1613
L 1656 0
L 538 0
L 538 3500
L 1656 3500
L 1656 2925
Q 1872 3269 2151 3426
Q 2431 3584 2822 3584
Q 2878 3584 2943 3579
Q 3009 3575 3134 3559
L 3138 2547
z
" transform="scale(0.015625)"/>
      <path id="DejaVuSans-Bold-76" d="M 97 3500
L 1216 3500
L 2088 1081
L 2956 3500
L 4078 3500
L 2700 0
L 1472 0
L 97 3500
z
" transform="scale(0.015625)"/>
      <path id="DejaVuSans-Bold-64" d="M 2919 2988
L 2919 4863
L 4044 4863
L 4044 0
L 2919 0
L 2919 506
Q 2688 197 2409 53
Q 2131 -91 1766 -91
Q 1119 -91 703 423
Q 288 938 288 1747
Q 288 2556 703 3070
Q 1119 3584 1766 3584
Q 2128 3584 2408 3439
Q 2688 3294 2919 2988
z
M 2181 722
Q 2541 722 2730 984
Q 2919 1247 2919 1747
Q 2919 2247 2730 2509
Q 2541 2772 2181 2772
Q 1825 2772 1636 2509
Q 1447 2247 1447 1747
Q 1447 1247 1636 984
Q 1825 722 2181 722
z
" transform="scale(0.015625)"/>
      <path id="DejaVuSans-Bold-54" d="M 31 4666
L 4331 4666
L 4331 3756
L 2784 3756
L 2784 0
L 1581 0
L 1581 3756
L 31 3756
L 31 4666
z
" transform="scale(0.015625)"/>
      <path id="DejaVuSans-Bold-75" d="M 500 1363
L 500 3500
L 1625 3500
L 1625 3150
Q 1625 2866 1622 2436
Q 1619 2006 1619 1863
Q 1619 1441 1641 1255
Q 1663 1069 1716 984
Q 1784 875 1895 815
Q 2006 756 2150 756
Q 2500 756 2700 1025
Q 2900 1294 2900 1772
L 2900 3500
L 4019 3500
L 4019 0
L 2900 0
L 2900 506
Q 2647 200 2364 54
Q 2081 -91 1741 -91
Q 1134 -91 817 281
Q 500 653 500 1363
z
" transform="scale(0.015625)"/>
      <path id="DejaVuSans-Bold-43" d="M 4288 256
Q 3956 84 3597 -3
Q 3238 -91 2847 -91
Q 1681 -91 1000 561
Q 319 1213 319 2328
Q 319 3447 1000 4098
Q 1681 4750 2847 4750
Q 3238 4750 3597 4662
Q 3956 4575 4288 4403
L 4288 3438
Q 3953 3666 3628 3772
Q 3303 3878 2944 3878
Q 2300 3878 1931 3465
Q 1563 3053 1563 2328
Q 1563 1606 1931 1193
Q 2300 781 2944 781
Q 3303 781 3628 887
Q 3953 994 4288 1222
L 4288 256
z
" transform="scale(0.015625)"/>
     </defs>
     <use xlink:href="#DejaVuSans-Bold-28"/>
     <use xlink:href="#DejaVuSans-Bold-41" x="45.703125"/>
     <use xlink:href="#DejaVuSans-Bold-29" x="123.095703"/>
     <use xlink:href="#DejaVuSans-Bold-20" x="168.798828"/>
     <use xlink:href="#DejaVuSans-Bold-4f" x="203.613281"/>
     <use xlink:href="#DejaVuSans-Bold-41" x="285.998047"/>
     <use xlink:href="#DejaVuSans-Bold-53" x="363.390625"/>
     <use xlink:href="#DejaVuSans-Bold-47" x="435.412109"/>
     <use xlink:href="#DejaVuSans-Bold-3a" x="517.492188"/>
     <use xlink:href="#DejaVuSans-Bold-20" x="557.482422"/>
     <use xlink:href="#DejaVuSans-Bold-4f" x="592.296875"/>
     <use xlink:href="#DejaVuSans-Bold-62" x="677.306641"/>
     <use xlink:href="#DejaVuSans-Bold-73" x="748.888672"/>
     <use xlink:href="#DejaVuSans-Bold-65" x="808.410156"/>
     <use xlink:href="#DejaVuSans-Bold-72" x="876.232422"/>
     <use xlink:href="#DejaVuSans-Bold-76" x="925.548828"/>
     <use xlink:href="#DejaVuSans-Bold-65" x="990.734375"/>
     <use xlink:href="#DejaVuSans-Bold-64" x="1058.556641"/>
     <use xlink:href="#DejaVuSans-Bold-20" x="1130.138672"/>
     <use xlink:href="#DejaVuSans-Bold-76" x="1164.953125"/>
     <use xlink:href="#DejaVuSans-Bold-73" x="1230.138672"/>
     <use xlink:href="#DejaVuSans-Bold-20" x="1289.660156"/>
     <use xlink:href="#DejaVuSans-Bold-54" x="1324.474609"/>
     <use xlink:href="#DejaVuSans-Bold-72" x="1381.6875"/>
     <use xlink:href="#DejaVuSans-Bold-75" x="1431.003906"/>
     <use xlink:href="#DejaVuSans-Bold-65" x="1502.195312"/>
     <use xlink:href="#DejaVuSans-Bold-20" x="1570.017578"/>
     <use xlink:href="#DejaVuSans-Bold-53" x="1604.832031"/>
     <use xlink:href="#DejaVuSans-Bold-4f" x="1676.853516"/>
     <use xlink:href="#DejaVuSans-Bold-43" x="1761.863281"/>
    </g>
   </g>
   <g id="line2d_19">
    <path d="M 326.334207 343.384
L 326.334207 68.144
" clip-path="url(#pb4540fc3b2)" style="fill: none; stroke-dasharray: 12.8,3.2,2,3.2; stroke-dashoffset: 0; stroke: #2e7d32; stroke-width: 2"/>
   </g>
   <g id="legend_1">
    <g id="patch_6">
     <path d="M 389.668363 121.514
L 490.628363 121.514
Q 492.228363 121.514 492.228363 119.914
L 492.228363 73.744
Q 492.228363 72.144 490.628363 72.144
L 389.668363 72.144
Q 388.068363 72.144 388.068363 73.744
L 388.068363 119.914
Q 388.068363 121.514 389.668363 121.514
z
" style="fill: #ffffff; opacity: 0.85; stroke: #cccccc; stroke-linejoin: miter"/>
    </g>
    <g id="line2d_20">
     <path d="M 391.268363 78.62275
L 399.268363 78.62275
L 407.268363 78.62275
" style="fill: none; stroke: #1565c0; stroke-width: 2; stroke-linecap: square"/>
    </g>
    <g id="text_21">
     <!-- Observed SOC -->
     <g transform="translate(413.668363 81.42275) scale(0.08 -0.08)">
      <defs>
       <path id="DejaVuSans-4f" d="M 2522 4238
Q 1834 4238 1429 3725
Q 1025 3213 1025 2328
Q 1025 1447 1429 934
Q 1834 422 2522 422
Q 3209 422 3611 934
Q 4013 1447 4013 2328
Q 4013 3213 3611 3725
Q 3209 4238 2522 4238
z
M 2522 4750
Q 3503 4750 4090 4092
Q 4678 3434 4678 2328
Q 4678 1225 4090 567
Q 3503 -91 2522 -91
Q 1538 -91 948 565
Q 359 1222 359 2328
Q 359 3434 948 4092
Q 1538 4750 2522 4750
z
" transform="scale(0.015625)"/>
       <path id="DejaVuSans-62" d="M 3116 1747
Q 3116 2381 2855 2742
Q 2594 3103 2138 3103
Q 1681 3103 1420 2742
Q 1159 2381 1159 1747
Q 1159 1113 1420 752
Q 1681 391 2138 391
Q 2594 391 2855 752
Q 3116 1113 3116 1747
z
M 1159 2969
Q 1341 3281 1617 3432
Q 1894 3584 2278 3584
Q 2916 3584 3314 3078
Q 3713 2572 3713 1747
Q 3713 922 3314 415
Q 2916 -91 2278 -91
Q 1894 -91 1617 61
Q 1341 213 1159 525
L 1159 0
L 581 0
L 581 4863
L 1159 4863
L 1159 2969
z
" transform="scale(0.015625)"/>
      </defs>
      <use xlink:href="#DejaVuSans-4f"/>
      <use xlink:href="#DejaVuSans-62" x="78.710938"/>
      <use xlink:href="#DejaVuSans-73" x="142.1875"/>
      <use xlink:href="#DejaVuSans-65" x="194.287109"/>
      <use xlink:href="#DejaVuSans-72" x="255.810547"/>
      <use xlink:href="#DejaVuSans-76" x="296.923828"/>
      <use xlink:href="#DejaVuSans-65" x="356.103516"/>
      <use xlink:href="#DejaVuSans-64" x="417.626953"/>
      <use xlink:href="#DejaVuSans-20" x="481.103516"/>
      <use xlink:href="#DejaVuSans-53" x="512.890625"/>
      <use xlink:href="#DejaVuSans-4f" x="576.367188"/>
      <use xlink:href="#DejaVuSans-43" x="655.078125"/>
     </g>
    </g>
    <g id="line2d_21">
     <path d="M 391.268363 90.36525
L 399.268363 90.36525
L 407.268363 90.36525
" style="fill: none; stroke-dasharray: 7.4,3.2; stroke-dashoffset: 0; stroke: #c62828; stroke-width: 2"/>
    </g>
    <g id="text_22">
     <!-- True SOC -->
     <g transform="translate(413.668363 93.16525) scale(0.08 -0.08)">
      <defs>
       <path id="DejaVuSans-75" d="M 544 1381
L 544 3500
L 1119 3500
L 1119 1403
Q 1119 906 1312 657
Q 1506 409 1894 409
Q 2359 409 2629 706
Q 2900 1003 2900 1516
L 2900 3500
L 3475 3500
L 3475 0
L 2900 0
L 2900 538
Q 2691 219 2414 64
Q 2138 -91 1772 -91
Q 1169 -91 856 284
Q 544 659 544 1381
z
M 1991 3584
L 1991 3584
z
" transform="scale(0.015625)"/>
      </defs>
      <use xlink:href="#DejaVuSans-54"/>
      <use xlink:href="#DejaVuSans-72" x="46.333984"/>
      <use xlink:href="#DejaVuSans-75" x="87.447266"/>
      <use xlink:href="#DejaVuSans-65" x="150.826172"/>
      <use xlink:href="#DejaVuSans-20" x="212.349609"/>
      <use xlink:href="#DejaVuSans-53" x="244.136719"/>
      <use xlink:href="#DejaVuSans-4f" x="307.613281"/>
      <use xlink:href="#DejaVuSans-43" x="386.324219"/>
     </g>
    </g>
    <g id="line2d_22">
     <path d="M 391.268363 102.10775
L 399.268363 102.10775
L 407.268363 102.10775
" style="fill: none; stroke-dasharray: 1.5,2.475; stroke-dashoffset: 0; stroke: #e65100; stroke-width: 1.5"/>
    </g>
    <g id="text_23">
     <!-- Safety floor (20 %) -->
     <g transform="translate(413.668363 104.90775) scale(0.08 -0.08)">
      <defs>
       <path id="DejaVuSans-79" d="M 2059 -325
Q 1816 -950 1584 -1140
Q 1353 -1331 966 -1331
L 506 -1331
L 506 -850
L 844 -850
Q 1081 -850 1212 -737
Q 1344 -625 1503 -206
L 1606 56
L 191 3500
L 800 3500
L 1894 763
L 2988 3500
L 3597 3500
L 2059 -325
z
" transform="scale(0.015625)"/>
      </defs>
      <use xlink:href="#DejaVuSans-53"/>
      <use xlink:href="#DejaVuSans-61" x="63.476562"/>
      <use xlink:href="#DejaVuSans-66" x="124.755859"/>
      <use xlink:href="#DejaVuSans-65" x="159.960938"/>
      <use xlink:href="#DejaVuSans-74" x="221.484375"/>
      <use xlink:href="#DejaVuSans-79" x="260.693359"/>
      <use xlink:href="#DejaVuSans-20" x="319.873047"/>
      <use xlink:href="#DejaVuSans-66" x="351.660156"/>
      <use xlink:href="#DejaVuSans-6c" x="386.865234"/>
      <use xlink:href="#DejaVuSans-6f" x="414.648438"/>
      <use xlink:href="#DejaVuSans-6f" x="475.830078"/>
      <use xlink:href="#DejaVuSans-72" x="537.011719"/>
      <use xlink:href="#DejaVuSans-20" x="578.125"/>
      <use xlink:href="#DejaVuSans-28" x="609.912109"/>
      <use xlink:href="#DejaVuSans-32" x="648.925781"/>
      <use xlink:href="#DejaVuSans-30" x="712.548828"/>
      <use xlink:href="#DejaVuSans-20" x="776.171875"/>
      <use xlink:href="#DejaVuSans-25" x="807.958984"/>
      <use xlink:href="#DejaVuSans-29" x="902.978516"/>
     </g>
    </g>
    <g id="patch_7">
     <path d="M 391.268363 116.65025
L 407.268363 116.65025
L 407.268363 111.05025
L 391.268363 111.05025
z
" style="fill: #ff8f00; fill-opacity: 0.18; stroke: #ff8f00; stroke-opacity: 0.18; stroke-linejoin: miter"/>
    </g>
    <g id="text_24">
     <!-- OASG region -->
     <g transform="translate(413.668363 116.65025) scale(0.08 -0.08)">
      <defs>
       <path id="DejaVuSans-41" d="M 2188 4044
L 1331 1722
L 3047 1722
L 2188 4044
z
M 1831 4666
L 2547 4666
L 4325 0
L 3669 0
L 3244 1197
L 1141 1197
L 716 0
L 50 0
L 1831 4666
z
" transform="scale(0.015625)"/>
       <path id="DejaVuSans-47" d="M 3809 666
L 3809 1919
L 2778 1919
L 2778 2438
L 4434 2438
L 4434 434
Q 4069 175 3628 42
Q 3188 -91 2688 -91
Q 1594 -91 976 548
Q 359 1188 359 2328
Q 359 3472 976 4111
Q 1594 4750 2688 4750
Q 3144 4750 3555 4637
Q 3966 4525 4313 4306
L 4313 3634
Q 3963 3931 3569 4081
Q 3175 4231 2741 4231
Q 1884 4231 1454 3753
Q 1025 3275 1025 2328
Q 1025 1384 1454 906
Q 1884 428 2741 428
Q 3075 428 3337 486
Q 3600 544 3809 666
z
" transform="scale(0.015625)"/>
       <path id="DejaVuSans-6e" d="M 3513 2113
L 3513 0
L 2938 0
L 2938 2094
Q 2938 2591 2744 2837
Q 2550 3084 2163 3084
Q 1697 3084 1428 2787
Q 1159 2491 1159 1978
L 1159 0
L 581 0
L 581 3500
L 1159 3500
L 1159 2956
Q 1366 3272 1645 3428
Q 1925 3584 2291 3584
Q 2894 3584 3203 3211
Q 3513 2838 3513 2113
z
" transform="scale(0.015625)"/>
      </defs>
      <use xlink:href="#DejaVuSans-4f"/>
      <use xlink:href="#DejaVuSans-41" x="76.960938"/>
      <use xlink:href="#DejaVuSans-53" x="145.369141"/>
      <use xlink:href="#DejaVuSans-47" x="208.845703"/>
      <use xlink:href="#DejaVuSans-20" x="286.335938"/>
      <use xlink:href="#DejaVuSans-72" x="318.123047"/>
      <use xlink:href="#DejaVuSans-65" x="356.986328"/>
      <use xlink:href="#DejaVuSans-67" x="418.509766"/>
      <use xlink:href="#DejaVuSans-69" x="481.986328"/>
      <use xlink:href="#DejaVuSans-6f" x="509.769531"/>
      <use xlink:href="#DejaVuSans-6e" x="570.951172"/>
     </g>
    </g>
   </g>
  </g>
  <g id="axes_2">
   <g id="patch_8">
    <path d="M 519.454506 177.68952
L 583.656244 177.68952
Q 586.969882 177.68952 586.969882 175.4876
L 586.969882 136.954
Q 586.969882 134.75208 583.656244 134.75208
L 519.454506 134.75208
Q 516.140868 134.75208 516.140868 136.954
L 516.140868 175.4876
Q 516.140868 177.68952 519.454506 177.68952
z
" clip-path="url(#p393d791e44)" style="fill: #1565c0; opacity: 0.88; stroke: #ffffff; stroke-linejoin: miter"/>
   </g>
   <g id="patch_9">
    <path d="M 596.082387 177.68952
L 660.284125 177.68952
Q 663.597763 177.68952 663.597763 175.4876
L 663.597763 136.954
Q 663.597763 134.75208 660.284125 134.75208
L 596.082387 134.75208
Q 592.768749 134.75208 592.768749 136.954
L 592.768749 175.4876
Q 592.768749 177.68952 596.082387 177.68952
z
" clip-path="url(#p393d791e44)" style="fill: #6a1b9a; opacity: 0.88; stroke: #ffffff; stroke-linejoin: miter"/>
   </g>
   <g id="patch_10">
    <path d="M 672.710268 177.68952
L 736.912006 177.68952
Q 740.225644 177.68952 740.225644 175.4876
L 740.225644 136.954
Q 740.225644 134.75208 736.912006 134.75208
L 672.710268 134.75208
Q 669.39663 134.75208 669.39663 136.954
L 669.39663 175.4876
Q 669.39663 177.68952 672.710268 177.68952
z
" clip-path="url(#p393d791e44)" style="fill: #b71c1c; opacity: 0.88; stroke: #ffffff; stroke-linejoin: miter"/>
   </g>
   <g id="patch_11">
    <path d="M 749.338149 177.68952
L 813.539887 177.68952
Q 816.853525 177.68952 816.853525 175.4876
L 816.853525 136.954
Q 816.853525 134.75208 813.539887 134.75208
L 749.338149 134.75208
Q 746.024511 134.75208 746.024511 136.954
L 746.024511 175.4876
Q 746.024511 177.68952 749.338149 177.68952
z
" clip-path="url(#p393d791e44)" style="fill: #e65100; opacity: 0.88; stroke: #ffffff; stroke-linejoin: miter"/>
   </g>
   <g id="patch_12">
    <path d="M 825.96603 177.68952
L 890.167768 177.68952
Q 893.481406 177.68952 893.481406 175.4876
L 893.481406 136.954
Q 893.481406 134.75208 890.167768 134.75208
L 825.96603 134.75208
Q 822.652392 134.75208 822.652392 136.954
L 822.652392 175.4876
Q 822.652392 177.68952 825.96603 177.68952
z
" clip-path="url(#p393d791e44)" style="fill: #2e7d32; opacity: 0.88; stroke: #ffffff; stroke-linejoin: miter"/>
   </g>
   <g id="text_25">
    <!-- Raw -->
    <g style="fill: #333333" transform="translate(542.107988 87.78065) scale(0.08 -0.08)">
     <defs>
      <path id="DejaVuSans-52" d="M 2841 2188
Q 3044 2119 3236 1894
Q 3428 1669 3622 1275
L 4263 0
L 3584 0
L 2988 1197
Q 2756 1666 2539 1819
Q 2322 1972 1947 1972
L 1259 1972
L 1259 0
L 628 0
L 628 4666
L 2053 4666
Q 2853 4666 3247 4331
Q 3641 3997 3641 3322
Q 3641 2881 3436 2590
Q 3231 2300 2841 2188
z
M 1259 4147
L 1259 2491
L 2053 2491
Q 2509 2491 2742 2702
Q 2975 2913 2975 3322
Q 2975 3731 2742 3939
Q 2509 4147 2053 4147
L 1259 4147
z
" transform="scale(0.015625)"/>
      <path id="DejaVuSans-77" d="M 269 3500
L 844 3500
L 1563 769
L 2278 3500
L 2956 3500
L 3675 769
L 4391 3500
L 4966 3500
L 4050 0
L 3372 0
L 2619 2869
L 1863 0
L 1184 0
L 269 3500
z
" transform="scale(0.015625)"/>
     </defs>
     <use xlink:href="#DejaVuSans-52"/>
     <use xlink:href="#DejaVuSans-61" x="67.232422"/>
     <use xlink:href="#DejaVuSans-77" x="128.511719"/>
    </g>
    <!-- telemetry $z_t$ -->
    <g style="fill: #333333" transform="translate(526.399863 96.7404) scale(0.08 -0.08)">
     <defs>
      <path id="DejaVuSans-Oblique-74" d="M 2706 3500
L 2619 3053
L 1472 3053
L 1100 1153
Q 1081 1047 1072 975
Q 1063 903 1063 863
Q 1063 663 1183 572
Q 1303 481 1569 481
L 2150 481
L 2053 0
L 1503 0
Q 991 0 739 200
Q 488 400 488 806
Q 488 878 497 964
Q 506 1050 525 1153
L 897 3053
L 409 3053
L 500 3500
L 978 3500
L 1172 4494
L 1747 4494
L 1556 3500
L 2706 3500
z
" transform="scale(0.015625)"/>
     </defs>
     <use xlink:href="#DejaVuSans-74" transform="translate(0 0.015625)"/>
     <use xlink:href="#DejaVuSans-65" transform="translate(39.208984 0.015625)"/>
     <use xlink:href="#DejaVuSans-6c" transform="translate(100.732422 0.015625)"/>
     <use xlink:href="#DejaVuSans-65" transform="translate(128.515625 0.015625)"/>
     <use xlink:href="#DejaVuSans-6d" transform="translate(190.039062 0.015625)"/>
     <use xlink:href="#DejaVuSans-65" transform="translate(287.451172 0.015625)"/>
     <use xlink:href="#DejaVuSans-74" transform="translate(348.974609 0.015625)"/>
     <use xlink:href="#DejaVuSans-72" transform="translate(388.183594 0.015625)"/>
     <use xlink:href="#DejaVuSans-79" transform="translate(429.296875 0.015625)"/>
     <use xlink:href="#DejaVuSans-20" transform="translate(488.476562 0.015625)"/>
     <use xlink:href="#DejaVuSans-Oblique-7a" transform="translate(520.263672 0.015625)"/>
     <use xlink:href="#DejaVuSans-Oblique-74" transform="translate(572.753906 -16.390625) scale(0.7)"/>
    </g>
   </g>
   <g id="text_26">
    <!-- Safe action $a_t^*$ -->
    <g style="fill: #2e7d32" transform="translate(826.026899 217.1726) scale(0.08 -0.08)">
     <defs>
      <path id="DejaVuSans-Bold-61" d="M 2106 1575
Q 1756 1575 1579 1456
Q 1403 1338 1403 1106
Q 1403 894 1545 773
Q 1688 653 1941 653
Q 2256 653 2472 879
Q 2688 1106 2688 1447
L 2688 1575
L 2106 1575
z
M 3816 1997
L 3816 0
L 2688 0
L 2688 519
Q 2463 200 2181 54
Q 1900 -91 1497 -91
Q 953 -91 614 226
Q 275 544 275 1050
Q 275 1666 698 1953
Q 1122 2241 2028 2241
L 2688 2241
L 2688 2328
Q 2688 2594 2478 2717
Q 2269 2841 1825 2841
Q 1466 2841 1156 2769
Q 847 2697 581 2553
L 581 3406
Q 941 3494 1303 3539
Q 1666 3584 2028 3584
Q 2975 3584 3395 3211
Q 3816 2838 3816 1997
z
" transform="scale(0.015625)"/>
      <path id="DejaVuSans-Bold-66" d="M 2841 4863
L 2841 4128
L 2222 4128
Q 1984 4128 1890 4042
Q 1797 3956 1797 3744
L 1797 3500
L 2753 3500
L 2753 2700
L 1797 2700
L 1797 0
L 678 0
L 678 2700
L 122 2700
L 122 3500
L 678 3500
L 678 3744
Q 678 4316 997 4589
Q 1316 4863 1984 4863
L 2841 4863
z
" transform="scale(0.015625)"/>
      <path id="DejaVuSans-Bold-63" d="M 3366 3391
L 3366 2478
Q 3138 2634 2908 2709
Q 2678 2784 2431 2784
Q 1963 2784 1702 2511
Q 1441 2238 1441 1747
Q 1441 1256 1702 982
Q 1963 709 2431 709
Q 2694 709 2930 787
Q 3166 866 3366 1019
L 3366 103
Q 3103 6 2833 -42
Q 2563 -91 2291 -91
Q 1344 -91 809 395
Q 275 881 275 1747
Q 275 2613 809 3098
Q 1344 3584 2291 3584
Q 2566 3584 2833 3536
Q 3100 3488 3366 3391
z
" transform="scale(0.015625)"/>
      <path id="DejaVuSans-Bold-74" d="M 1759 4494
L 1759 3500
L 2913 3500
L 2913 2700
L 1759 2700
L 1759 1216
Q 1759 972 1856 886
Q 1953 800 2241 800
L 2816 800
L 2816 0
L 1856 0
Q 1194 0 917 276
Q 641 553 641 1216
L 641 2700
L 84 2700
L 84 3500
L 641 3500
L 641 4494
L 1759 4494
z
" transform="scale(0.015625)"/>
      <path id="DejaVuSans-Bold-69" d="M 538 3500
L 1656 3500
L 1656 0
L 538 0
L 538 3500
z
M 538 4863
L 1656 4863
L 1656 3950
L 538 3950
L 538 4863
z
" transform="scale(0.015625)"/>
      <path id="DejaVuSans-Bold-6f" d="M 2203 2784
Q 1831 2784 1636 2517
Q 1441 2250 1441 1747
Q 1441 1244 1636 976
Q 1831 709 2203 709
Q 2569 709 2762 976
Q 2956 1244 2956 1747
Q 2956 2250 2762 2517
Q 2569 2784 2203 2784
z
M 2203 3584
Q 3106 3584 3614 3096
Q 4122 2609 4122 1747
Q 4122 884 3614 396
Q 3106 -91 2203 -91
Q 1297 -91 786 396
Q 275 884 275 1747
Q 275 2609 786 3096
Q 1297 3584 2203 3584
z
" transform="scale(0.015625)"/>
      <path id="DejaVuSans-Bold-6e" d="M 4056 2131
L 4056 0
L 2931 0
L 2931 347
L 2931 1631
Q 2931 2084 2911 2256
Q 2891 2428 2841 2509
Q 2775 2619 2662 2680
Q 2550 2741 2406 2741
Q 2056 2741 1856 2470
Q 1656 2200 1656 1722
L 1656 0
L 538 0
L 538 3500
L 1656 3500
L 1656 2988
Q 1909 3294 2193 3439
Q 2478 3584 2822 3584
Q 3428 3584 3742 3212
Q 4056 2841 4056 2131
z
" transform="scale(0.015625)"/>
      <path id="DejaVuSans-Oblique-61" d="M 3438 1997
L 3047 0
L 2472 0
L 2578 531
Q 2325 219 2001 64
Q 1678 -91 1281 -91
Q 834 -91 548 182
Q 263 456 263 884
Q 263 1497 752 1853
Q 1241 2209 2100 2209
L 2900 2209
L 2931 2363
Q 2938 2388 2941 2417
Q 2944 2447 2944 2509
Q 2944 2788 2717 2942
Q 2491 3097 2081 3097
Q 1800 3097 1504 3025
Q 1209 2953 897 2809
L 997 3341
Q 1322 3463 1633 3523
Q 1944 3584 2234 3584
Q 2853 3584 3176 3315
Q 3500 3047 3500 2534
Q 3500 2431 3484 2292
Q 3469 2153 3438 1997
z
M 2816 1759
L 2241 1759
Q 1534 1759 1195 1570
Q 856 1381 856 984
Q 856 709 1029 553
Q 1203 397 1509 397
Q 1978 397 2328 733
Q 2678 1069 2791 1631
L 2816 1759
z
" transform="scale(0.015625)"/>
      <path id="DejaVuSans-2a" d="M 3009 3897
L 1888 3291
L 3009 2681
L 2828 2375
L 1778 3009
L 1778 1831
L 1422 1831
L 1422 3009
L 372 2375
L 191 2681
L 1313 3291
L 191 3897
L 372 4206
L 1422 3572
L 1422 4750
L 1778 4750
L 1778 3572
L 2828 4206
L 3009 3897
z
" transform="scale(0.015625)"/>
     </defs>
     <use xlink:href="#DejaVuSans-Bold-53" transform="translate(0 0.765625)"/>
     <use xlink:href="#DejaVuSans-Bold-61" transform="translate(72.021484 0.765625)"/>
     <use xlink:href="#DejaVuSans-Bold-66" transform="translate(139.501953 0.765625)"/>
     <use xlink:href="#DejaVuSans-Bold-65" transform="translate(183.007812 0.765625)"/>
     <use xlink:href="#DejaVuSans-Bold-20" transform="translate(250.830078 0.765625)"/>
     <use xlink:href="#DejaVuSans-Bold-61" transform="translate(285.644531 0.765625)"/>
     <use xlink:href="#DejaVuSans-Bold-63" transform="translate(353.125 0.765625)"/>
     <use xlink:href="#DejaVuSans-Bold-74" transform="translate(412.402344 0.765625)"/>
     <use xlink:href="#DejaVuSans-Bold-69" transform="translate(460.205078 0.765625)"/>
     <use xlink:href="#DejaVuSans-Bold-6f" transform="translate(494.482422 0.765625)"/>
     <use xlink:href="#DejaVuSans-Bold-6e" transform="translate(563.183594 0.765625)"/>
     <use xlink:href="#DejaVuSans-Bold-20" transform="translate(634.375 0.765625)"/>
     <use xlink:href="#DejaVuSans-Oblique-61" transform="translate(669.189453 0.765625)"/>
     <use xlink:href="#DejaVuSans-2a" transform="translate(748.756341 39.046875) scale(0.7)"/>
     <use xlink:href="#DejaVuSans-Oblique-74" transform="translate(730.46875 -26.578125) scale(0.7)"/>
    </g>
    <!-- + Certificate -->
    <g style="fill: #2e7d32" transform="translate(829.611274 226.7071) scale(0.08 -0.08)">
     <defs>
      <path id="DejaVuSans-Bold-2b" d="M 3053 4013
L 3053 2375
L 4684 2375
L 4684 1638
L 3053 1638
L 3053 0
L 2309 0
L 2309 1638
L 678 1638
L 678 2375
L 2309 2375
L 2309 4013
L 3053 4013
z
" transform="scale(0.015625)"/>
     </defs>
     <use xlink:href="#DejaVuSans-Bold-2b"/>
     <use xlink:href="#DejaVuSans-Bold-20" x="83.789062"/>
     <use xlink:href="#DejaVuSans-Bold-43" x="118.603516"/>
     <use xlink:href="#DejaVuSans-Bold-65" x="191.992188"/>
     <use xlink:href="#DejaVuSans-Bold-72" x="259.814453"/>
     <use xlink:href="#DejaVuSans-Bold-74" x="309.130859"/>
     <use xlink:href="#DejaVuSans-Bold-69" x="356.933594"/>
     <use xlink:href="#DejaVuSans-Bold-66" x="391.210938"/>
     <use xlink:href="#DejaVuSans-Bold-69" x="434.716797"/>
     <use xlink:href="#DejaVuSans-Bold-63" x="468.994141"/>
     <use xlink:href="#DejaVuSans-Bold-61" x="528.271484"/>
     <use xlink:href="#DejaVuSans-Bold-74" x="595.751953"/>
     <use xlink:href="#DejaVuSans-Bold-65" x="643.554688"/>
    </g>
   </g>
   <g id="patch_13">
    <path d="M 647.711 116.798464
Q 619.642744 133.925103 591.574487 151.051741
" style="fill: none; stroke-dasharray: 2.96,1.28; stroke-dashoffset: 0; stroke: #aaaaaa; stroke-width: 0.8; stroke-linecap: round"/>
   </g>
   <g id="text_27">
    <!-- $w_t$ flows right → -->
    <g style="fill: #555555" transform="translate(629.218768 112.1824) scale(0.075 -0.075)">
     <defs>
      <path id="DejaVuSans-Oblique-77" d="M 544 3500
L 1113 3500
L 1259 684
L 2566 3500
L 3231 3500
L 3425 684
L 4666 3500
L 5241 3500
L 3641 0
L 2969 0
L 2797 2900
L 1459 0
L 781 0
L 544 3500
z
" transform="scale(0.015625)"/>
      <path id="DejaVuSans-2192" d="M 5050 2147
L 5050 1866
L 3822 638
L 3447 1013
L 4175 1741
L 366 1741
L 366 2272
L 4175 2272
L 3447 3000
L 3822 3375
L 5050 2147
z
" transform="scale(0.015625)"/>
     </defs>
     <use xlink:href="#DejaVuSans-Oblique-77" transform="translate(0 0.015625)"/>
     <use xlink:href="#DejaVuSans-Oblique-74" transform="translate(81.787109 -16.390625) scale(0.7)"/>
     <use xlink:href="#DejaVuSans-20" transform="translate(111.967773 0.015625)"/>
     <use xlink:href="#DejaVuSans-66" transform="translate(143.754883 0.015625)"/>
     <use xlink:href="#DejaVuSans-6c" transform="translate(178.959961 0.015625)"/>
     <use xlink:href="#DejaVuSans-6f" transform="translate(206.743164 0.015625)"/>
     <use xlink:href="#DejaVuSans-77" transform="translate(267.924805 0.015625)"/>
     <use xlink:href="#DejaVuSans-73" transform="translate(349.711914 0.015625)"/>
     <use xlink:href="#DejaVuSans-20" transform="translate(401.811523 0.015625)"/>
     <use xlink:href="#DejaVuSans-72" transform="translate(433.598633 0.015625)"/>
     <use xlink:href="#DejaVuSans-69" transform="translate(474.711914 0.015625)"/>
     <use xlink:href="#DejaVuSans-67" transform="translate(502.495117 0.015625)"/>
     <use xlink:href="#DejaVuSans-68" transform="translate(565.97168 0.015625)"/>
     <use xlink:href="#DejaVuSans-74" transform="translate(629.350586 0.015625)"/>
     <use xlink:href="#DejaVuSans-20" transform="translate(668.55957 0.015625)"/>
     <use xlink:href="#DejaVuSans-2192" transform="translate(700.34668 0.015625)"/>
    </g>
   </g>
   <g id="text_28">
    <!-- (B) DC3S Five-Stage Pipeline -->
    <g transform="translate(624.566682 54.144) scale(0.11 -0.11)">
     <defs>
      <path id="DejaVuSans-Bold-42" d="M 2456 2859
Q 2741 2859 2887 2984
Q 3034 3109 3034 3353
Q 3034 3594 2887 3720
Q 2741 3847 2456 3847
L 1791 3847
L 1791 2859
L 2456 2859
z
M 2497 819
Q 2859 819 3042 972
Q 3225 1125 3225 1434
Q 3225 1738 3044 1889
Q 2863 2041 2497 2041
L 1791 2041
L 1791 819
L 2497 819
z
M 3616 2497
Q 4003 2384 4215 2081
Q 4428 1778 4428 1338
Q 4428 663 3972 331
Q 3516 0 2584 0
L 588 0
L 588 4666
L 2394 4666
Q 3366 4666 3802 4372
Q 4238 4078 4238 3431
Q 4238 3091 4078 2852
Q 3919 2613 3616 2497
z
" transform="scale(0.015625)"/>
      <path id="DejaVuSans-Bold-44" d="M 1791 3756
L 1791 909
L 2222 909
Q 2959 909 3348 1275
Q 3738 1641 3738 2338
Q 3738 3031 3350 3393
Q 2963 3756 2222 3756
L 1791 3756
z
M 588 4666
L 1856 4666
Q 2919 4666 3439 4514
Q 3959 4363 4331 4000
Q 4659 3684 4818 3271
Q 4978 2859 4978 2338
Q 4978 1809 4818 1395
Q 4659 981 4331 666
Q 3956 303 3431 151
Q 2906 0 1856 0
L 588 0
L 588 4666
z
" transform="scale(0.015625)"/>
      <path id="DejaVuSans-Bold-33" d="M 2981 2516
Q 3453 2394 3698 2092
Q 3944 1791 3944 1325
Q 3944 631 3412 270
Q 2881 -91 1863 -91
Q 1503 -91 1142 -33
Q 781 25 428 141
L 428 1069
Q 766 900 1098 814
Q 1431 728 1753 728
Q 2231 728 2486 893
Q 2741 1059 2741 1369
Q 2741 1688 2480 1852
Q 2219 2016 1709 2016
L 1228 2016
L 1228 2791
L 1734 2791
Q 2188 2791 2409 2933
Q 2631 3075 2631 3366
Q 2631 3634 2415 3781
Q 2200 3928 1806 3928
Q 1516 3928 1219 3862
Q 922 3797 628 3669
L 628 4550
Q 984 4650 1334 4700
Q 1684 4750 2022 4750
Q 2931 4750 3382 4451
Q 3834 4153 3834 3553
Q 3834 3144 3618 2883
Q 3403 2622 2981 2516
z
" transform="scale(0.015625)"/>
      <path id="DejaVuSans-Bold-46" d="M 588 4666
L 3834 4666
L 3834 3756
L 1791 3756
L 1791 2888
L 3713 2888
L 3713 1978
L 1791 1978
L 1791 0
L 588 0
L 588 4666
z
" transform="scale(0.015625)"/>
      <path id="DejaVuSans-Bold-2d" d="M 347 2297
L 2309 2297
L 2309 1388
L 347 1388
L 347 2297
z
" transform="scale(0.015625)"/>
      <path id="DejaVuSans-Bold-67" d="M 2919 594
Q 2688 288 2409 144
Q 2131 0 1766 0
Q 1125 0 706 504
Q 288 1009 288 1791
Q 288 2575 706 3076
Q 1125 3578 1766 3578
Q 2131 3578 2409 3434
Q 2688 3291 2919 2981
L 2919 3500
L 4044 3500
L 4044 353
Q 4044 -491 3511 -936
Q 2978 -1381 1966 -1381
Q 1638 -1381 1331 -1331
Q 1025 -1281 716 -1178
L 716 -306
Q 1009 -475 1290 -558
Q 1572 -641 1856 -641
Q 2406 -641 2662 -400
Q 2919 -159 2919 353
L 2919 594
z
M 2181 2772
Q 1834 2772 1640 2515
Q 1447 2259 1447 1791
Q 1447 1309 1634 1061
Q 1822 813 2181 813
Q 2531 813 2725 1069
Q 2919 1325 2919 1791
Q 2919 2259 2725 2515
Q 2531 2772 2181 2772
z
" transform="scale(0.015625)"/>
      <path id="DejaVuSans-Bold-50" d="M 588 4666
L 2584 4666
Q 3475 4666 3951 4270
Q 4428 3875 4428 3144
Q 4428 2409 3951 2014
Q 3475 1619 2584 1619
L 1791 1619
L 1791 0
L 588 0
L 588 4666
z
M 1791 3794
L 1791 2491
L 2456 2491
Q 2806 2491 2997 2661
Q 3188 2831 3188 3144
Q 3188 3456 2997 3625
Q 2806 3794 2456 3794
L 1791 3794
z
" transform="scale(0.015625)"/>
      <path id="DejaVuSans-Bold-70" d="M 1656 506
L 1656 -1331
L 538 -1331
L 538 3500
L 1656 3500
L 1656 2988
Q 1888 3294 2169 3439
Q 2450 3584 2816 3584
Q 3463 3584 3878 3070
Q 4294 2556 4294 1747
Q 4294 938 3878 423
Q 3463 -91 2816 -91
Q 2450 -91 2169 54
Q 1888 200 1656 506
z
M 2400 2772
Q 2041 2772 1848 2508
Q 1656 2244 1656 1747
Q 1656 1250 1848 986
Q 2041 722 2400 722
Q 2759 722 2948 984
Q 3138 1247 3138 1747
Q 3138 2247 2948 2509
Q 2759 2772 2400 2772
z
" transform="scale(0.015625)"/>
      <path id="DejaVuSans-Bold-6c" d="M 538 4863
L 1656 4863
L 1656 0
L 538 0
L 538 4863
z
" transform="scale(0.015625)"/>
     </defs>
     <use xlink:href="#DejaVuSans-Bold-28"/>
     <use xlink:href="#DejaVuSans-Bold-42" x="45.703125"/>
     <use xlink:href="#DejaVuSans-Bold-29" x="121.923828"/>
     <use xlink:href="#DejaVuSans-Bold-20" x="167.626953"/>
     <use xlink:href="#DejaVuSans-Bold-44" x="202.441406"/>
     <use xlink:href="#DejaVuSans-Bold-43" x="285.449219"/>
     <use xlink:href="#DejaVuSans-Bold-33" x="358.837891"/>
     <use xlink:href="#DejaVuSans-Bold-53" x="428.417969"/>
     <use xlink:href="#DejaVuSans-Bold-20" x="500.439453"/>
     <use xlink:href="#DejaVuSans-Bold-46" x="535.253906"/>
     <use xlink:href="#DejaVuSans-Bold-69" x="603.564453"/>
     <use xlink:href="#DejaVuSans-Bold-76" x="637.841797"/>
     <use xlink:href="#DejaVuSans-Bold-65" x="703.027344"/>
     <use xlink:href="#DejaVuSans-Bold-2d" x="770.849609"/>
     <use xlink:href="#DejaVuSans-Bold-53" x="812.353516"/>
     <use xlink:href="#DejaVuSans-Bold-74" x="884.375"/>
     <use xlink:href="#DejaVuSans-Bold-61" x="932.177734"/>
     <use xlink:href="#DejaVuSans-Bold-67" x="999.658203"/>
     <use xlink:href="#DejaVuSans-Bold-65" x="1071.240234"/>
     <use xlink:href="#DejaVuSans-Bold-20" x="1139.0625"/>
     <use xlink:href="#DejaVuSans-Bold-50" x="1173.876953"/>
     <use xlink:href="#DejaVuSans-Bold-69" x="1247.167969"/>
     <use xlink:href="#DejaVuSans-Bold-70" x="1281.445312"/>
     <use xlink:href="#DejaVuSans-Bold-65" x="1353.027344"/>
     <use xlink:href="#DejaVuSans-Bold-6c" x="1420.849609"/>
     <use xlink:href="#DejaVuSans-Bold-69" x="1455.126953"/>
     <use xlink:href="#DejaVuSans-Bold-6e" x="1489.404297"/>
     <use xlink:href="#DejaVuSans-Bold-65" x="1560.595703"/>
    </g>
   </g>
   <g id="text_29">
    <!-- Detect -->
    <g style="fill: #ffffff" transform="translate(535.679633 149.183166) scale(0.085 -0.085)">
     <use xlink:href="#DejaVuSans-Bold-44"/>
     <use xlink:href="#DejaVuSans-Bold-65" x="83.007812"/>
     <use xlink:href="#DejaVuSans-Bold-74" x="150.830078"/>
     <use xlink:href="#DejaVuSans-Bold-65" x="198.632812"/>
     <use xlink:href="#DejaVuSans-Bold-63" x="266.455078"/>
     <use xlink:href="#DejaVuSans-Bold-74" x="325.732422"/>
    </g>
    <!-- (OQE) -->
    <g style="fill: #ffffff" transform="translate(537.541 158.701307) scale(0.085 -0.085)">
     <defs>
      <path id="DejaVuSans-Bold-51" d="M 2847 -84
L 2753 -84
Q 1600 -84 959 553
Q 319 1191 319 2328
Q 319 3463 958 4106
Q 1597 4750 2719 4750
Q 3853 4750 4486 4112
Q 5119 3475 5119 2328
Q 5119 1541 4783 972
Q 4447 403 3816 116
L 4756 -934
L 3609 -934
L 2847 -84
z
M 2719 3878
Q 2169 3878 1866 3472
Q 1563 3066 1563 2328
Q 1563 1578 1859 1179
Q 2156 781 2719 781
Q 3272 781 3575 1187
Q 3878 1594 3878 2328
Q 3878 3066 3575 3472
Q 3272 3878 2719 3878
z
" transform="scale(0.015625)"/>
      <path id="DejaVuSans-Bold-45" d="M 588 4666
L 3834 4666
L 3834 3756
L 1791 3756
L 1791 2888
L 3713 2888
L 3713 1978
L 1791 1978
L 1791 909
L 3903 909
L 3903 0
L 588 0
L 588 4666
z
" transform="scale(0.015625)"/>
     </defs>
     <use xlink:href="#DejaVuSans-Bold-28"/>
     <use xlink:href="#DejaVuSans-Bold-4f" x="45.703125"/>
     <use xlink:href="#DejaVuSans-Bold-51" x="130.712891"/>
     <use xlink:href="#DejaVuSans-Bold-45" x="215.722656"/>
     <use xlink:href="#DejaVuSans-Bold-29" x="284.033203"/>
    </g>
   </g>
   <g id="text_30">
    <!-- Scores telemetry -->
    <g style="fill: #ffffff; opacity: 0.92" transform="translate(522.573563 165.071783) scale(0.068 -0.068)">
     <use xlink:href="#DejaVuSans-53"/>
     <use xlink:href="#DejaVuSans-63" x="63.476562"/>
     <use xlink:href="#DejaVuSans-6f" x="118.457031"/>
     <use xlink:href="#DejaVuSans-72" x="179.638672"/>
     <use xlink:href="#DejaVuSans-65" x="218.501953"/>
     <use xlink:href="#DejaVuSans-73" x="280.025391"/>
     <use xlink:href="#DejaVuSans-20" x="332.125"/>
     <use xlink:href="#DejaVuSans-74" x="363.912109"/>
     <use xlink:href="#DejaVuSans-65" x="403.121094"/>
     <use xlink:href="#DejaVuSans-6c" x="464.644531"/>
     <use xlink:href="#DejaVuSans-65" x="492.427734"/>
     <use xlink:href="#DejaVuSans-6d" x="553.951172"/>
     <use xlink:href="#DejaVuSans-65" x="651.363281"/>
     <use xlink:href="#DejaVuSans-74" x="712.886719"/>
     <use xlink:href="#DejaVuSans-72" x="752.095703"/>
     <use xlink:href="#DejaVuSans-79" x="793.208984"/>
    </g>
    <!-- reliability  $w_t$ -->
    <g style="fill: #ffffff; opacity: 0.92" transform="translate(529.761375 172.687571) scale(0.068 -0.068)">
     <use xlink:href="#DejaVuSans-72" transform="translate(0 0.015625)"/>
     <use xlink:href="#DejaVuSans-65" transform="translate(41.113281 0.015625)"/>
     <use xlink:href="#DejaVuSans-6c" transform="translate(102.636719 0.015625)"/>
     <use xlink:href="#DejaVuSans-69" transform="translate(130.419922 0.015625)"/>
     <use xlink:href="#DejaVuSans-61" transform="translate(158.203125 0.015625)"/>
     <use xlink:href="#DejaVuSans-62" transform="translate(219.482422 0.015625)"/>
     <use xlink:href="#DejaVuSans-69" transform="translate(282.958984 0.015625)"/>
     <use xlink:href="#DejaVuSans-6c" transform="translate(310.742188 0.015625)"/>
     <use xlink:href="#DejaVuSans-69" transform="translate(338.525391 0.015625)"/>
     <use xlink:href="#DejaVuSans-74" transform="translate(366.308594 0.015625)"/>
     <use xlink:href="#DejaVuSans-79" transform="translate(405.517578 0.015625)"/>
     <use xlink:href="#DejaVuSans-20" transform="translate(464.697266 0.015625)"/>
     <use xlink:href="#DejaVuSans-20" transform="translate(496.484375 0.015625)"/>
     <use xlink:href="#DejaVuSans-Oblique-77" transform="translate(528.271484 0.015625)"/>
     <use xlink:href="#DejaVuSans-Oblique-74" transform="translate(610.058594 -16.390625) scale(0.7)"/>
    </g>
   </g>
   <g id="text_31">
    <!-- Calibrate -->
    <g style="fill: #ffffff" transform="translate(606.362162 149.183166) scale(0.085 -0.085)">
     <use xlink:href="#DejaVuSans-Bold-43"/>
     <use xlink:href="#DejaVuSans-Bold-61" x="73.388672"/>
     <use xlink:href="#DejaVuSans-Bold-6c" x="140.869141"/>
     <use xlink:href="#DejaVuSans-Bold-69" x="175.146484"/>
     <use xlink:href="#DejaVuSans-Bold-62" x="209.423828"/>
     <use xlink:href="#DejaVuSans-Bold-72" x="281.005859"/>
     <use xlink:href="#DejaVuSans-Bold-61" x="330.322266"/>
     <use xlink:href="#DejaVuSans-Bold-74" x="397.802734"/>
     <use xlink:href="#DejaVuSans-Bold-65" x="445.605469"/>
    </g>
    <!-- (RUI) -->
    <g style="fill: #ffffff" transform="translate(615.993725 158.701307) scale(0.085 -0.085)">
     <defs>
      <path id="DejaVuSans-Bold-52" d="M 2297 2597
Q 2675 2597 2839 2737
Q 3003 2878 3003 3200
Q 3003 3519 2839 3656
Q 2675 3794 2297 3794
L 1791 3794
L 1791 2597
L 2297 2597
z
M 1791 1766
L 1791 0
L 588 0
L 588 4666
L 2425 4666
Q 3347 4666 3776 4356
Q 4206 4047 4206 3378
Q 4206 2916 3982 2619
Q 3759 2322 3309 2181
Q 3556 2125 3751 1926
Q 3947 1728 4147 1325
L 4800 0
L 3519 0
L 2950 1159
Q 2778 1509 2601 1637
Q 2425 1766 2131 1766
L 1791 1766
z
" transform="scale(0.015625)"/>
      <path id="DejaVuSans-Bold-55" d="M 588 4666
L 1791 4666
L 1791 1869
Q 1791 1291 1980 1042
Q 2169 794 2597 794
Q 3028 794 3217 1042
Q 3406 1291 3406 1869
L 3406 4666
L 4609 4666
L 4609 1869
Q 4609 878 4112 393
Q 3616 -91 2597 -91
Q 1581 -91 1084 393
Q 588 878 588 1869
L 588 4666
z
" transform="scale(0.015625)"/>
      <path id="DejaVuSans-Bold-49" d="M 588 4666
L 1791 4666
L 1791 0
L 588 0
L 588 4666
z
" transform="scale(0.015625)"/>
     </defs>
     <use xlink:href="#DejaVuSans-Bold-28"/>
     <use xlink:href="#DejaVuSans-Bold-52" x="45.703125"/>
     <use xlink:href="#DejaVuSans-Bold-55" x="122.705078"/>
     <use xlink:href="#DejaVuSans-Bold-49" x="203.90625"/>
     <use xlink:href="#DejaVuSans-Bold-29" x="241.113281"/>
    </g>
   </g>
   <g id="text_32">
    <!-- Inflates uncertainty -->
    <g style="fill: #ffffff; opacity: 0.92" transform="translate(594.993943 165.071783) scale(0.068 -0.068)">
     <defs>
      <path id="DejaVuSans-49" d="M 628 4666
L 1259 4666
L 1259 0
L 628 0
L 628 4666
z
" transform="scale(0.015625)"/>
     </defs>
     <use xlink:href="#DejaVuSans-49"/>
     <use xlink:href="#DejaVuSans-6e" x="29.492188"/>
     <use xlink:href="#DejaVuSans-66" x="92.871094"/>
     <use xlink:href="#DejaVuSans-6c" x="128.076172"/>
     <use xlink:href="#DejaVuSans-61" x="155.859375"/>
     <use xlink:href="#DejaVuSans-74" x="217.138672"/>
     <use xlink:href="#DejaVuSans-65" x="256.347656"/>
     <use xlink:href="#DejaVuSans-73" x="317.871094"/>
     <use xlink:href="#DejaVuSans-20" x="369.970703"/>
     <use xlink:href="#DejaVuSans-75" x="401.757812"/>
     <use xlink:href="#DejaVuSans-6e" x="465.136719"/>
     <use xlink:href="#DejaVuSans-63" x="528.515625"/>
     <use xlink:href="#DejaVuSans-65" x="583.496094"/>
     <use xlink:href="#DejaVuSans-72" x="645.019531"/>
     <use xlink:href="#DejaVuSans-74" x="686.132812"/>
     <use xlink:href="#DejaVuSans-61" x="725.341797"/>
     <use xlink:href="#DejaVuSans-69" x="786.621094"/>
     <use xlink:href="#DejaVuSans-6e" x="814.404297"/>
     <use xlink:href="#DejaVuSans-74" x="877.783203"/>
     <use xlink:href="#DejaVuSans-79" x="916.992188"/>
    </g>
    <!-- set by $1/w_t$ -->
    <g style="fill: #ffffff; opacity: 0.92" transform="translate(609.517256 172.687571) scale(0.068 -0.068)">
     <defs>
      <path id="DejaVuSans-2f" d="M 1625 4666
L 2156 4666
L 531 -594
L 0 -594
L 1625 4666
z
" transform="scale(0.015625)"/>
     </defs>
     <use xlink:href="#DejaVuSans-73" transform="translate(0 0.015625)"/>
     <use xlink:href="#DejaVuSans-65" transform="translate(52.099609 0.015625)"/>
     <use xlink:href="#DejaVuSans-74" transform="translate(113.623047 0.015625)"/>
     <use xlink:href="#DejaVuSans-20" transform="translate(152.832031 0.015625)"/>
     <use xlink:href="#DejaVuSans-62" transform="translate(184.619141 0.015625)"/>
     <use xlink:href="#DejaVuSans-79" transform="translate(248.095703 0.015625)"/>
     <use xlink:href="#DejaVuSans-20" transform="translate(307.275391 0.015625)"/>
     <use xlink:href="#DejaVuSans-31" transform="translate(339.0625 0.015625)"/>
     <use xlink:href="#DejaVuSans-2f" transform="translate(402.685547 0.015625)"/>
     <use xlink:href="#DejaVuSans-Oblique-77" transform="translate(436.376953 0.015625)"/>
     <use xlink:href="#DejaVuSans-Oblique-74" transform="translate(518.164062 -16.390625) scale(0.7)"/>
    </g>
   </g>
   <g id="text_33">
    <!-- Constrain -->
    <g style="fill: #ffffff" transform="translate(681.739613 149.183166) scale(0.085 -0.085)">
     <use xlink:href="#DejaVuSans-Bold-43"/>
     <use xlink:href="#DejaVuSans-Bold-6f" x="73.388672"/>
     <use xlink:href="#DejaVuSans-Bold-6e" x="142.089844"/>
     <use xlink:href="#DejaVuSans-Bold-73" x="213.28125"/>
     <use xlink:href="#DejaVuSans-Bold-74" x="272.802734"/>
     <use xlink:href="#DejaVuSans-Bold-72" x="320.605469"/>
     <use xlink:href="#DejaVuSans-Bold-61" x="369.921875"/>
     <use xlink:href="#DejaVuSans-Bold-69" x="437.402344"/>
     <use xlink:href="#DejaVuSans-Bold-6e" x="471.679688"/>
    </g>
    <!-- (SAF) -->
    <g style="fill: #ffffff" transform="translate(691.673324 158.701307) scale(0.085 -0.085)">
     <use xlink:href="#DejaVuSans-Bold-28"/>
     <use xlink:href="#DejaVuSans-Bold-53" x="45.703125"/>
     <use xlink:href="#DejaVuSans-Bold-41" x="117.724609"/>
     <use xlink:href="#DejaVuSans-Bold-46" x="195.117188"/>
     <use xlink:href="#DejaVuSans-Bold-29" x="263.427734"/>
    </g>
   </g>
   <g id="text_34">
    <!-- Tightens safe -->
    <g style="fill: #ffffff; opacity: 0.92" transform="translate(682.007762 165.079327) scale(0.068 -0.068)">
     <use xlink:href="#DejaVuSans-54"/>
     <use xlink:href="#DejaVuSans-69" x="57.958984"/>
     <use xlink:href="#DejaVuSans-67" x="85.742188"/>
     <use xlink:href="#DejaVuSans-68" x="149.21875"/>
     <use xlink:href="#DejaVuSans-74" x="212.597656"/>
     <use xlink:href="#DejaVuSans-65" x="251.806641"/>
     <use xlink:href="#DejaVuSans-6e" x="313.330078"/>
     <use xlink:href="#DejaVuSans-73" x="376.708984"/>
     <use xlink:href="#DejaVuSans-20" x="428.808594"/>
     <use xlink:href="#DejaVuSans-73" x="460.595703"/>
     <use xlink:href="#DejaVuSans-61" x="512.695312"/>
     <use xlink:href="#DejaVuSans-66" x="573.974609"/>
     <use xlink:href="#DejaVuSans-65" x="609.179688"/>
    </g>
    <!-- action set -->
    <g style="fill: #ffffff; opacity: 0.92" transform="translate(688.068793 172.693839) scale(0.068 -0.068)">
     <use xlink:href="#DejaVuSans-61"/>
     <use xlink:href="#DejaVuSans-63" x="61.279297"/>
     <use xlink:href="#DejaVuSans-74" x="116.259766"/>
     <use xlink:href="#DejaVuSans-69" x="155.46875"/>
     <use xlink:href="#DejaVuSans-6f" x="183.251953"/>
     <use xlink:href="#DejaVuSans-6e" x="244.433594"/>
     <use xlink:href="#DejaVuSans-20" x="307.8125"/>
     <use xlink:href="#DejaVuSans-73" x="339.599609"/>
     <use xlink:href="#DejaVuSans-65" x="391.699219"/>
     <use xlink:href="#DejaVuSans-74" x="453.222656"/>
    </g>
   </g>
   <g id="text_35">
    <!-- Shield -->
    <g style="fill: #ffffff" transform="translate(766.514213 149.183166) scale(0.085 -0.085)">
     <defs>
      <path id="DejaVuSans-Bold-68" d="M 4056 2131
L 4056 0
L 2931 0
L 2931 347
L 2931 1625
Q 2931 2084 2911 2256
Q 2891 2428 2841 2509
Q 2775 2619 2662 2680
Q 2550 2741 2406 2741
Q 2056 2741 1856 2470
Q 1656 2200 1656 1722
L 1656 0
L 538 0
L 538 4863
L 1656 4863
L 1656 2988
Q 1909 3294 2193 3439
Q 2478 3584 2822 3584
Q 3428 3584 3742 3212
Q 4056 2841 4056 2131
z
" transform="scale(0.015625)"/>
     </defs>
     <use xlink:href="#DejaVuSans-Bold-53"/>
     <use xlink:href="#DejaVuSans-Bold-68" x="72.021484"/>
     <use xlink:href="#DejaVuSans-Bold-69" x="143.212891"/>
     <use xlink:href="#DejaVuSans-Bold-65" x="177.490234"/>
     <use xlink:href="#DejaVuSans-Bold-6c" x="245.3125"/>
     <use xlink:href="#DejaVuSans-Bold-64" x="279.589844"/>
    </g>
    <!-- (Repair) -->
    <g style="fill: #ffffff" transform="translate(761.936166 158.701307) scale(0.085 -0.085)">
     <use xlink:href="#DejaVuSans-Bold-28"/>
     <use xlink:href="#DejaVuSans-Bold-52" x="45.703125"/>
     <use xlink:href="#DejaVuSans-Bold-65" x="122.705078"/>
     <use xlink:href="#DejaVuSans-Bold-70" x="190.527344"/>
     <use xlink:href="#DejaVuSans-Bold-61" x="262.109375"/>
     <use xlink:href="#DejaVuSans-Bold-69" x="329.589844"/>
     <use xlink:href="#DejaVuSans-Bold-72" x="363.867188"/>
     <use xlink:href="#DejaVuSans-Bold-29" x="413.183594"/>
    </g>
   </g>
   <g id="text_36">
    <!-- Projects action -->
    <g style="fill: #ffffff; opacity: 0.92" transform="translate(756.490455 165.079327) scale(0.068 -0.068)">
     <defs>
      <path id="DejaVuSans-50" d="M 1259 4147
L 1259 2394
L 2053 2394
Q 2494 2394 2734 2622
Q 2975 2850 2975 3272
Q 2975 3691 2734 3919
Q 2494 4147 2053 4147
L 1259 4147
z
M 628 4666
L 2053 4666
Q 2838 4666 3239 4311
Q 3641 3956 3641 3272
Q 3641 2581 3239 2228
Q 2838 1875 2053 1875
L 1259 1875
L 1259 0
L 628 0
L 628 4666
z
" transform="scale(0.015625)"/>
      <path id="DejaVuSans-6a" d="M 603 3500
L 1178 3500
L 1178 -63
Q 1178 -731 923 -1031
Q 669 -1331 103 -1331
L -116 -1331
L -116 -844
L 38 -844
Q 366 -844 484 -692
Q 603 -541 603 -63
L 603 3500
z
M 603 4863
L 1178 4863
L 1178 4134
L 603 4134
L 603 4863
z
" transform="scale(0.015625)"/>
     </defs>
     <use xlink:href="#DejaVuSans-50"/>
     <use xlink:href="#DejaVuSans-72" x="58.552734"/>
     <use xlink:href="#DejaVuSans-6f" x="97.416016"/>
     <use xlink:href="#DejaVuSans-6a" x="158.597656"/>
     <use xlink:href="#DejaVuSans-65" x="186.380859"/>
     <use xlink:href="#DejaVuSans-63" x="247.904297"/>
     <use xlink:href="#DejaVuSans-74" x="302.884766"/>
     <use xlink:href="#DejaVuSans-73" x="342.09375"/>
     <use xlink:href="#DejaVuSans-20" x="394.193359"/>
     <use xlink:href="#DejaVuSans-61" x="425.980469"/>
     <use xlink:href="#DejaVuSans-63" x="487.259766"/>
     <use xlink:href="#DejaVuSans-74" x="542.240234"/>
     <use xlink:href="#DejaVuSans-69" x="581.449219"/>
     <use xlink:href="#DejaVuSans-6f" x="609.232422"/>
     <use xlink:href="#DejaVuSans-6e" x="670.414062"/>
    </g>
    <!-- into safe set -->
    <g style="fill: #ffffff; opacity: 0.92" transform="translate(760.425424 172.693839) scale(0.068 -0.068)">
     <use xlink:href="#DejaVuSans-69"/>
     <use xlink:href="#DejaVuSans-6e" x="27.783203"/>
     <use xlink:href="#DejaVuSans-74" x="91.162109"/>
     <use xlink:href="#DejaVuSans-6f" x="130.371094"/>
     <use xlink:href="#DejaVuSans-20" x="191.552734"/>
     <use xlink:href="#DejaVuSans-73" x="223.339844"/>
     <use xlink:href="#DejaVuSans-61" x="275.439453"/>
     <use xlink:href="#DejaVuSans-66" x="336.71875"/>
     <use xlink:href="#DejaVuSans-65" x="371.923828"/>
     <use xlink:href="#DejaVuSans-20" x="433.447266"/>
     <use xlink:href="#DejaVuSans-73" x="465.234375"/>
     <use xlink:href="#DejaVuSans-65" x="517.333984"/>
     <use xlink:href="#DejaVuSans-74" x="578.857422"/>
    </g>
   </g>
   <g id="text_37">
    <!-- Certify -->
    <g style="fill: #ffffff" transform="translate(841.861782 149.149963) scale(0.085 -0.085)">
     <defs>
      <path id="DejaVuSans-Bold-79" d="M 78 3500
L 1197 3500
L 2138 1125
L 2938 3500
L 4056 3500
L 2584 -331
Q 2363 -916 2067 -1148
Q 1772 -1381 1288 -1381
L 641 -1381
L 641 -647
L 991 -647
Q 1275 -647 1404 -556
Q 1534 -466 1606 -231
L 1638 -134
L 78 3500
z
" transform="scale(0.015625)"/>
     </defs>
     <use xlink:href="#DejaVuSans-Bold-43"/>
     <use xlink:href="#DejaVuSans-Bold-65" x="73.388672"/>
     <use xlink:href="#DejaVuSans-Bold-72" x="141.210938"/>
     <use xlink:href="#DejaVuSans-Bold-74" x="190.527344"/>
     <use xlink:href="#DejaVuSans-Bold-69" x="238.330078"/>
     <use xlink:href="#DejaVuSans-Bold-66" x="272.607422"/>
     <use xlink:href="#DejaVuSans-Bold-79" x="316.113281"/>
    </g>
    <!-- (CERTos) -->
    <g style="fill: #ffffff" transform="translate(837.293032 158.73451) scale(0.085 -0.085)">
     <use xlink:href="#DejaVuSans-Bold-28"/>
     <use xlink:href="#DejaVuSans-Bold-43" x="45.703125"/>
     <use xlink:href="#DejaVuSans-Bold-45" x="119.091797"/>
     <use xlink:href="#DejaVuSans-Bold-52" x="187.402344"/>
     <use xlink:href="#DejaVuSans-Bold-54" x="259.904297"/>
     <use xlink:href="#DejaVuSans-Bold-6f" x="314.867188"/>
     <use xlink:href="#DejaVuSans-Bold-73" x="383.568359"/>
     <use xlink:href="#DejaVuSans-Bold-29" x="443.089844"/>
    </g>
   </g>
   <g id="text_38">
    <!-- Emits per-step -->
    <g style="fill: #ffffff; opacity: 0.92" transform="translate(833.464711 165.079327) scale(0.068 -0.068)">
     <defs>
      <path id="DejaVuSans-45" d="M 628 4666
L 3578 4666
L 3578 4134
L 1259 4134
L 1259 2753
L 3481 2753
L 3481 2222
L 1259 2222
L 1259 531
L 3634 531
L 3634 0
L 628 0
L 628 4666
z
" transform="scale(0.015625)"/>
      <path id="DejaVuSans-2d" d="M 313 2009
L 1997 2009
L 1997 1497
L 313 1497
L 313 2009
z
" transform="scale(0.015625)"/>
     </defs>
     <use xlink:href="#DejaVuSans-45"/>
     <use xlink:href="#DejaVuSans-6d" x="63.183594"/>
     <use xlink:href="#DejaVuSans-69" x="160.595703"/>
     <use xlink:href="#DejaVuSans-74" x="188.378906"/>
     <use xlink:href="#DejaVuSans-73" x="227.587891"/>
     <use xlink:href="#DejaVuSans-20" x="279.6875"/>
     <use xlink:href="#DejaVuSans-70" x="311.474609"/>
     <use xlink:href="#DejaVuSans-65" x="374.951172"/>
     <use xlink:href="#DejaVuSans-72" x="436.474609"/>
     <use xlink:href="#DejaVuSans-2d" x="471.212891"/>
     <use xlink:href="#DejaVuSans-73" x="507.296875"/>
     <use xlink:href="#DejaVuSans-74" x="559.396484"/>
     <use xlink:href="#DejaVuSans-65" x="598.605469"/>
     <use xlink:href="#DejaVuSans-70" x="660.128906"/>
    </g>
    <!-- safety certificate -->
    <g style="fill: #ffffff; opacity: 0.92" transform="translate(829.341149 172.693839) scale(0.068 -0.068)">
     <use xlink:href="#DejaVuSans-73"/>
     <use xlink:href="#DejaVuSans-61" x="52.099609"/>
     <use xlink:href="#DejaVuSans-66" x="113.378906"/>
     <use xlink:href="#DejaVuSans-65" x="148.583984"/>
     <use xlink:href="#DejaVuSans-74" x="210.107422"/>
     <use xlink:href="#DejaVuSans-79" x="249.316406"/>
     <use xlink:href="#DejaVuSans-20" x="308.496094"/>
     <use xlink:href="#DejaVuSans-63" x="340.283203"/>
     <use xlink:href="#DejaVuSans-65" x="395.263672"/>
     <use xlink:href="#DejaVuSans-72" x="456.787109"/>
     <use xlink:href="#DejaVuSans-74" x="497.900391"/>
     <use xlink:href="#DejaVuSans-69" x="537.109375"/>
     <use xlink:href="#DejaVuSans-66" x="564.892578"/>
     <use xlink:href="#DejaVuSans-69" x="600.097656"/>
     <use xlink:href="#DejaVuSans-63" x="627.880859"/>
     <use xlink:href="#DejaVuSans-61" x="682.861328"/>
     <use xlink:href="#DejaVuSans-74" x="744.140625"/>
     <use xlink:href="#DejaVuSans-65" x="783.349609"/>
    </g>
   </g>
   <g id="patch_14">
    <path d="M 586.480239 156.2208
Q 589.247412 156.2208 590.672945 156.2208
" style="fill: none; stroke: #444444; stroke-width: 1.2; stroke-linecap: round"/>
    <path d="M 586.672945 154.2208
L 590.672945 156.2208
L 586.672945 158.2208
z
" style="fill: #444444; stroke: #444444; stroke-width: 1.2; stroke-linecap: round"/>
   </g>
   <g id="patch_15">
    <path d="M 663.10812 156.2208
Q 665.875293 156.2208 667.300826 156.2208
" style="fill: none; stroke: #444444; stroke-width: 1.2; stroke-linecap: round"/>
    <path d="M 663.300826 154.2208
L 667.300826 156.2208
L 663.300826 158.2208
z
" style="fill: #444444; stroke: #444444; stroke-width: 1.2; stroke-linecap: round"/>
   </g>
   <g id="patch_16">
    <path d="M 739.736001 156.2208
Q 742.503174 156.2208 743.928707 156.2208
" style="fill: none; stroke: #444444; stroke-width: 1.2; stroke-linecap: round"/>
    <path d="M 739.928707 154.2208
L 743.928707 156.2208
L 739.928707 158.2208
z
" style="fill: #444444; stroke: #444444; stroke-width: 1.2; stroke-linecap: round"/>
   </g>
   <g id="patch_17">
    <path d="M 816.363882 156.2208
Q 819.131055 156.2208 820.556588 156.2208
" style="fill: none; stroke: #444444; stroke-width: 1.2; stroke-linecap: round"/>
    <path d="M 816.556588 154.2208
L 820.556588 156.2208
L 816.556588 158.2208
z
" style="fill: #444444; stroke: #444444; stroke-width: 1.2; stroke-linecap: round"/>
   </g>
   <g id="patch_18">
    <path d="M 550.519863 105.929022
Q 550.519863 120.439789 550.519863 133.608915
" style="fill: none; stroke: #555555; stroke-width: 1.2; stroke-linecap: round"/>
    <path d="M 552.519863 129.608915
L 550.519863 133.608915
L 548.519863 129.608915
z
" style="fill: #555555; stroke: #555555; stroke-width: 1.2; stroke-linecap: round"/>
   </g>
   <g id="patch_19">
    <path d="M 858.066899 178.037467
Q 858.066899 190.900588 858.066899 202.086658
" style="fill: none; stroke: #2e7d32; stroke-width: 1.5; stroke-linecap: round"/>
    <path d="M 860.066899 198.086658
L 858.066899 202.086658
L 856.066899 198.086658
z
" style="fill: #2e7d32; stroke: #2e7d32; stroke-width: 1.5; stroke-linecap: round"/>
   </g>
  </g>
  <g id="text_39">
   <!-- The Observation–Action Safety Gap (OASG) and the DC3S Remedy -->
   <g transform="translate(222.155938 17.077969) scale(0.13 -0.13)">
    <defs>
     <path id="DejaVuSans-Bold-2013" d="M 344 2156
L 2856 2156
L 2856 1350
L 344 1350
L 344 2156
z
" transform="scale(0.015625)"/>
     <path id="DejaVuSans-Bold-6d" d="M 3781 2919
Q 3994 3244 4286 3414
Q 4578 3584 4928 3584
Q 5531 3584 5847 3212
Q 6163 2841 6163 2131
L 6163 0
L 5038 0
L 5038 1825
Q 5041 1866 5042 1909
Q 5044 1953 5044 2034
Q 5044 2406 4934 2573
Q 4825 2741 4581 2741
Q 4263 2741 4089 2478
Q 3916 2216 3909 1719
L 3909 0
L 2784 0
L 2784 1825
Q 2784 2406 2684 2573
Q 2584 2741 2328 2741
Q 2006 2741 1831 2477
Q 1656 2213 1656 1722
L 1656 0
L 531 0
L 531 3500
L 1656 3500
L 1656 2988
Q 1863 3284 2130 3434
Q 2397 3584 2719 3584
Q 3081 3584 3359 3409
Q 3638 3234 3781 2919
z
" transform="scale(0.015625)"/>
    </defs>
    <use xlink:href="#DejaVuSans-Bold-54"/>
    <use xlink:href="#DejaVuSans-Bold-68" x="68.212891"/>
    <use xlink:href="#DejaVuSans-Bold-65" x="139.404297"/>
    <use xlink:href="#DejaVuSans-Bold-20" x="207.226562"/>
    <use xlink:href="#DejaVuSans-Bold-4f" x="242.041016"/>
    <use xlink:href="#DejaVuSans-Bold-62" x="327.050781"/>
    <use xlink:href="#DejaVuSans-Bold-73" x="398.632812"/>
    <use xlink:href="#DejaVuSans-Bold-65" x="458.154297"/>
    <use xlink:href="#DejaVuSans-Bold-72" x="525.976562"/>
    <use xlink:href="#DejaVuSans-Bold-76" x="575.292969"/>
    <use xlink:href="#DejaVuSans-Bold-61" x="640.478516"/>
    <use xlink:href="#DejaVuSans-Bold-74" x="707.958984"/>
    <use xlink:href="#DejaVuSans-Bold-69" x="755.761719"/>
    <use xlink:href="#DejaVuSans-Bold-6f" x="790.039062"/>
    <use xlink:href="#DejaVuSans-Bold-6e" x="858.740234"/>
    <use xlink:href="#DejaVuSans-Bold-2013" x="929.931641"/>
    <use xlink:href="#DejaVuSans-Bold-41" x="979.931641"/>
    <use xlink:href="#DejaVuSans-Bold-63" x="1057.324219"/>
    <use xlink:href="#DejaVuSans-Bold-74" x="1116.601562"/>
    <use xlink:href="#DejaVuSans-Bold-69" x="1164.404297"/>
    <use xlink:href="#DejaVuSans-Bold-6f" x="1198.681641"/>
    <use xlink:href="#DejaVuSans-Bold-6e" x="1267.382812"/>
    <use xlink:href="#DejaVuSans-Bold-20" x="1338.574219"/>
    <use xlink:href="#DejaVuSans-Bold-53" x="1373.388672"/>
    <use xlink:href="#DejaVuSans-Bold-61" x="1445.410156"/>
    <use xlink:href="#DejaVuSans-Bold-66" x="1512.890625"/>
    <use xlink:href="#DejaVuSans-Bold-65" x="1556.396484"/>
    <use xlink:href="#DejaVuSans-Bold-74" x="1624.21875"/>
    <use xlink:href="#DejaVuSans-Bold-79" x="1672.021484"/>
    <use xlink:href="#DejaVuSans-Bold-20" x="1737.207031"/>
    <use xlink:href="#DejaVuSans-Bold-47" x="1772.021484"/>
    <use xlink:href="#DejaVuSans-Bold-61" x="1854.101562"/>
    <use xlink:href="#DejaVuSans-Bold-70" x="1921.582031"/>
    <use xlink:href="#DejaVuSans-Bold-20" x="1993.164062"/>
    <use xlink:href="#DejaVuSans-Bold-28" x="2027.978516"/>
    <use xlink:href="#DejaVuSans-Bold-4f" x="2073.681641"/>
    <use xlink:href="#DejaVuSans-Bold-41" x="2156.066406"/>
    <use xlink:href="#DejaVuSans-Bold-53" x="2233.458984"/>
    <use xlink:href="#DejaVuSans-Bold-47" x="2305.480469"/>
    <use xlink:href="#DejaVuSans-Bold-29" x="2387.560547"/>
    <use xlink:href="#DejaVuSans-Bold-20" x="2433.263672"/>
    <use xlink:href="#DejaVuSans-Bold-61" x="2468.078125"/>
    <use xlink:href="#DejaVuSans-Bold-6e" x="2535.558594"/>
    <use xlink:href="#DejaVuSans-Bold-64" x="2606.75"/>
    <use xlink:href="#DejaVuSans-Bold-20" x="2678.332031"/>
    <use xlink:href="#DejaVuSans-Bold-74" x="2713.146484"/>
    <use xlink:href="#DejaVuSans-Bold-68" x="2760.949219"/>
    <use xlink:href="#DejaVuSans-Bold-65" x="2832.140625"/>
    <use xlink:href="#DejaVuSans-Bold-20" x="2899.962891"/>
    <use xlink:href="#DejaVuSans-Bold-44" x="2934.777344"/>
    <use xlink:href="#DejaVuSans-Bold-43" x="3017.785156"/>
    <use xlink:href="#DejaVuSans-Bold-33" x="3091.173828"/>
    <use xlink:href="#DejaVuSans-Bold-53" x="3160.753906"/>
    <use xlink:href="#DejaVuSans-Bold-20" x="3232.775391"/>
    <use xlink:href="#DejaVuSans-Bold-52" x="3267.589844"/>
    <use xlink:href="#DejaVuSans-Bold-65" x="3344.591797"/>
    <use xlink:href="#DejaVuSans-Bold-6d" x="3412.414062"/>
    <use xlink:href="#DejaVuSans-Bold-65" x="3516.613281"/>
    <use xlink:href="#DejaVuSans-Bold-64" x="3584.435547"/>
    <use xlink:href="#DejaVuSans-Bold-79" x="3656.017578"/>
   </g>
  </g>
 </g>
 <defs>
  <clipPath id="pb4540fc3b2">
   <rect x="40.603125" y="68.144" width="455.625238" height="275.24"/>
  </clipPath>
  <clipPath id="p393d791e44">
   <rect x="507.028363" y="68.144" width="414.204762" height="275.24"/>
  </clipPath>
 </defs>
</svg>
