<?xml version="1.0"?>
<svg xmlns="http://www.w3.org/2000/svg" width="400" height="300" viewBox="0 0 400 300">
<rect width="400" height="300" fill="white"/>
<text x="10" y="20" font-size="12">Certificate tube shrinkage (forward_tube)</text>
<path d="M 50.0,219.1 L 60.0,211.4 L 70.0,208.2 L 80.0,205.8 L 90.0,203.7 L 100.0,201.9 L 110.0,200.2 L 120.0,198.7 L 130.0,197.3 L 140.0,196.0 L 150.0,194.7 L 160.0,193.5 L 170.0,192.4 L 180.0,191.3 L 190.0,190.2 L 200.0,189.2 L 210.0,188.2 L 220.0,187.3 L 230.0,186.4 L 240.0,185.5 L 250.0,184.6 L 260.0,183.7 L 270.0,182.9 L 280.0,182.1 L 290.0,181.3 L 300.0,180.5 L 310.0,179.8 L 320.0,179.0 L 330.0,178.3 L 340.0,177.6 L 350.0,176.8" fill="none" stroke="#1f77b4" stroke-width="2"/>
<text x="320" y="30" font-size="10" fill="#1f77b4">σ_d=0.5</text>
<path d="M 50.0,219.1 L 60.0,203.7 L 70.0,197.3 L 80.0,192.4 L 90.0,188.2 L 100.0,184.6 L 110.0,181.3 L 120.0,178.3 L 130.0,175.5 L 140.0,172.8 L 150.0,170.3 L 160.0,167.9 L 170.0,165.6 L 180.0,163.5 L 190.0,161.4 L 200.0,159.3 L 210.0,157.4 L 220.0,155.5 L 230.0,153.6 L 240.0,151.8 L 250.0,150.1 L 260.0,148.4 L 270.0,146.7 L 280.0,145.1 L 290.0,143.5 L 300.0,141.9 L 310.0,140.4 L 320.0,138.9 L 330.0,137.4 L 340.0,136.0 L 350.0,134.6" fill="none" stroke="#ff7f0e" stroke-width="2"/>
<text x="320" y="45" font-size="10" fill="#ff7f0e">σ_d=1.0</text>
<path d="M 50.0,219.1 L 60.0,188.2 L 70.0,175.5 L 80.0,165.6 L 90.0,157.4 L 100.0,150.1 L 110.0,143.5 L 120.0,137.4 L 130.0,131.8 L 140.0,126.5 L 150.0,121.5 L 160.0,116.7 L 170.0,112.2 L 180.0,107.8 L 190.0,103.6 L 200.0,99.5 L 210.0,95.6 L 220.0,91.8 L 230.0,88.1 L 240.0,84.5 L 250.0,81.0 L 260.0,77.6 L 270.0,74.3 L 280.0,71.0 L 290.0,67.9 L 300.0,64.7 L 310.0,61.7 L 320.0,58.7 L 330.0,55.7 L 340.0,52.8 L 350.0,50.0" fill="none" stroke="#2ca02c" stroke-width="2"/>
<text x="320" y="60" font-size="10" fill="#2ca02c">σ_d=2.0</text>
</svg>